<?xml version="1.0" encoding="UTF-8" standalone="no"?>
<!DOCTYPE svg PUBLIC "-//W3C//DTD SVG 1.1//EN"
 "http://www.w3.org/Graphics/SVG/1.1/DTD/svg11.dtd">
<!-- Generated by graphviz version 2.43.0 (0)
 -->
<!-- Title: hws::gpu_amd_hardware_sampler Pages: 1 -->
<svg width="454pt" height="274pt"
 viewBox="0.00 0.00 454.00 273.50" xmlns="http://www.w3.org/2000/svg" xmlns:xlink="http://www.w3.org/1999/xlink">
<g id="graph0" class="graph" transform="scale(1 1) rotate(0) translate(4 269.5)">
<title>hws::gpu_amd_hardware_sampler</title>
<polygon fill="white" stroke="transparent" points="-4,4 -4,-269.5 450,-269.5 450,4 -4,4"/>
<!-- Node1 -->
<g id="node1" class="node">
<title>Node1</title>
<g id="a_node1"><a xlink:title="A hardware sampler for AMD GPUs.">
<polygon fill="#bfbfbf" stroke="black" points="308,-122.5 308,-152.5 446,-152.5 446,-122.5 308,-122.5"/>
<text text-anchor="start" x="316" y="-140.5" font-family="Helvetica,sans-Serif" font-size="10.00">hws::gpu_amd_hardware</text>
<text text-anchor="middle" x="377" y="-129.5" font-family="Helvetica,sans-Serif" font-size="10.00">_sampler</text>
</a>
</g>
</g>
<!-- Node2 -->
<g id="node2" class="node">
<title>Node2</title>
<g id="a_node2"><a xlink:href="classhws_1_1hardware__sampler.html" target="_top" xlink:title="The base class for all specialized hardware samplers.">
<polygon fill="white" stroke="black" points="11.5,-246 11.5,-265 144.5,-265 144.5,-246 11.5,-246"/>
<text text-anchor="middle" x="78" y="-253" font-family="Helvetica,sans-Serif" font-size="10.00">hws::hardware_sampler</text>
</a>
</g>
</g>
<!-- Node2&#45;&gt;Node1 -->
<g id="edge1" class="edge">
<title>Node2&#45;&gt;Node1</title>
<path fill="none" stroke="midnightblue" d="M154.97,-247.93C196.48,-241.61 247.86,-230.16 290,-209.5 319.02,-195.27 346.57,-169.22 362.35,-152.66"/>
<polygon fill="midnightblue" stroke="midnightblue" points="154.31,-244.48 144.92,-249.38 155.32,-251.41 154.31,-244.48"/>
</g>
<!-- Node3 -->
<g id="node3" class="node">
<title>Node3</title>
<g id="a_node3"><a xlink:href="classhws_1_1rocm__smi__temperature__samples.html" target="_top" xlink:title="Wrapper class for all temperature related ROCm SMI hardware samples.">
<polygon fill="white" stroke="black" points="0,-196.5 0,-226.5 156,-226.5 156,-196.5 0,-196.5"/>
<text text-anchor="start" x="8" y="-214.5" font-family="Helvetica,sans-Serif" font-size="10.00">hws::rocm_smi_temperature</text>
<text text-anchor="middle" x="78" y="-203.5" font-family="Helvetica,sans-Serif" font-size="10.00">_samples</text>
</a>
</g>
</g>
<!-- Node3&#45;&gt;Node1 -->
<g id="edge2" class="edge">
<title>Node3&#45;&gt;Node1</title>
<path fill="none" stroke="#9a32cd" stroke-dasharray="5,2" d="M166.39,-196.63C204.64,-189.37 249.85,-179.76 290,-168.5 305.89,-164.04 323.07,-158.09 337.86,-152.59"/>
<polygon fill="#9a32cd" stroke="#9a32cd" points="165.5,-193.24 156.31,-198.52 166.79,-200.12 165.5,-193.24"/>
<text text-anchor="middle" x="232" y="-197.5" font-family="Helvetica,sans-Serif" font-size="10.00"> temperature_samples_</text>
</g>
<!-- Node4 -->
<g id="node4" class="node">
<title>Node4</title>
<g id="a_node4"><a xlink:href="classhws_1_1rocm__smi__general__samples.html" target="_top" xlink:title="Wrapper class for all general ROCm SMI hardware samples.">
<polygon fill="white" stroke="black" points="12,-147.5 12,-177.5 144,-177.5 144,-147.5 12,-147.5"/>
<text text-anchor="start" x="20" y="-165.5" font-family="Helvetica,sans-Serif" font-size="10.00">hws::rocm_smi_general</text>
<text text-anchor="middle" x="78" y="-154.5" font-family="Helvetica,sans-Serif" font-size="10.00">_samples</text>
</a>
</g>
</g>
<!-- Node4&#45;&gt;Node1 -->
<g id="edge3" class="edge">
<title>Node4&#45;&gt;Node1</title>
<path fill="none" stroke="#9a32cd" stroke-dasharray="5,2" d="M154.36,-156.16C201.62,-152.18 262.06,-147.09 307.88,-143.23"/>
<polygon fill="#9a32cd" stroke="#9a32cd" points="153.85,-152.69 144.18,-157.01 154.44,-159.66 153.85,-152.69"/>
<text text-anchor="middle" x="232" y="-156.5" font-family="Helvetica,sans-Serif" font-size="10.00"> general_samples_</text>
</g>
<!-- Node5 -->
<g id="node5" class="node">
<title>Node5</title>
<g id="a_node5"><a xlink:href="classhws_1_1rocm__smi__power__samples.html" target="_top" xlink:title="Wrapper class for all power related ROCm SMI hardware samples.">
<polygon fill="white" stroke="black" points="15.5,-98.5 15.5,-128.5 140.5,-128.5 140.5,-98.5 15.5,-98.5"/>
<text text-anchor="start" x="23.5" y="-116.5" font-family="Helvetica,sans-Serif" font-size="10.00">hws::rocm_smi_power</text>
<text text-anchor="middle" x="78" y="-105.5" font-family="Helvetica,sans-Serif" font-size="10.00">_samples</text>
</a>
</g>
</g>
<!-- Node5&#45;&gt;Node1 -->
<g id="edge4" class="edge">
<title>Node5&#45;&gt;Node1</title>
<path fill="none" stroke="#9a32cd" stroke-dasharray="5,2" d="M151,-118.65C191.8,-121.65 243.77,-125.6 290,-129.5 295.83,-129.99 301.88,-130.52 307.94,-131.06"/>
<polygon fill="#9a32cd" stroke="#9a32cd" points="151.11,-115.15 140.88,-117.91 150.6,-122.13 151.11,-115.15"/>
<text text-anchor="middle" x="232" y="-132.5" font-family="Helvetica,sans-Serif" font-size="10.00"> power_samples_</text>
</g>
<!-- Node6 -->
<g id="node6" class="node">
<title>Node6</title>
<g id="a_node6"><a xlink:href="classhws_1_1rocm__smi__memory__samples.html" target="_top" xlink:title="Wrapper class for all memory related ROCm SMI hardware samples.">
<polygon fill="white" stroke="black" points="9.5,-49.5 9.5,-79.5 146.5,-79.5 146.5,-49.5 9.5,-49.5"/>
<text text-anchor="start" x="17.5" y="-67.5" font-family="Helvetica,sans-Serif" font-size="10.00">hws::rocm_smi_memory</text>
<text text-anchor="middle" x="78" y="-56.5" font-family="Helvetica,sans-Serif" font-size="10.00">_samples</text>
</a>
</g>
</g>
<!-- Node6&#45;&gt;Node1 -->
<g id="edge5" class="edge">
<title>Node6&#45;&gt;Node1</title>
<path fill="none" stroke="#9a32cd" stroke-dasharray="5,2" d="M156.72,-75.81C196.91,-82.52 246.52,-92.15 290,-104.5 307.08,-109.35 325.51,-116.2 340.92,-122.4"/>
<polygon fill="#9a32cd" stroke="#9a32cd" points="157.15,-72.34 146.71,-74.17 156.01,-79.24 157.15,-72.34"/>
<text text-anchor="middle" x="232" y="-107.5" font-family="Helvetica,sans-Serif" font-size="10.00"> memory_samples_</text>
</g>
<!-- Node7 -->
<g id="node7" class="node">
<title>Node7</title>
<g id="a_node7"><a xlink:href="classhws_1_1rocm__smi__clock__samples.html" target="_top" xlink:title="Wrapper class for all clock related ROCm SMI hardware samples.">
<polygon fill="white" stroke="black" points="17.5,-0.5 17.5,-30.5 138.5,-30.5 138.5,-0.5 17.5,-0.5"/>
<text text-anchor="start" x="25.5" y="-18.5" font-family="Helvetica,sans-Serif" font-size="10.00">hws::rocm_smi_clock</text>
<text text-anchor="middle" x="78" y="-7.5" font-family="Helvetica,sans-Serif" font-size="10.00">_samples</text>
</a>
</g>
</g>
<!-- Node7&#45;&gt;Node1 -->
<g id="edge6" class="edge">
<title>Node7&#45;&gt;Node1</title>
<path fill="none" stroke="#9a32cd" stroke-dasharray="5,2" d="M148.91,-22.74C191.45,-29.2 245.9,-41.26 290,-63.5 319.37,-78.31 347.02,-105.29 362.69,-122.26"/>
<polygon fill="#9a32cd" stroke="#9a32cd" points="149.32,-19.26 138.92,-21.29 148.32,-26.19 149.32,-19.26"/>
<text text-anchor="middle" x="232" y="-66.5" font-family="Helvetica,sans-Serif" font-size="10.00"> clock_samples_</text>
</g>
</g>
</svg>
