<?xml version="1.0" encoding="UTF-8" standalone="no"?>
<!DOCTYPE svg PUBLIC "-//W3C//DTD SVG 1.1//EN"
 "http://www.w3.org/Graphics/SVG/1.1/DTD/svg11.dtd">
<!-- Generated by graphviz version 2.43.0 (0)
 -->
<!-- Title: hws::gpu_intel_hardware_sampler Pages: 1 -->
<svg width="456pt" height="323pt"
 viewBox="0.00 0.00 456.00 322.50" xmlns="http://www.w3.org/2000/svg" xmlns:xlink="http://www.w3.org/1999/xlink">
<g id="graph0" class="graph" transform="scale(1 1) rotate(0) translate(4 318.5)">
<title>hws::gpu_intel_hardware_sampler</title>
<polygon fill="white" stroke="transparent" points="-4,4 -4,-318.5 452,-318.5 452,4 -4,4"/>
<!-- Node1 -->
<g id="node1" class="node">
<title>Node1</title>
<g id="a_node1"><a xlink:title="A hardware sampler for Intel GPUs.">
<polygon fill="#bfbfbf" stroke="black" points="310,-147.5 310,-177.5 448,-177.5 448,-147.5 310,-147.5"/>
<text text-anchor="start" x="318" y="-165.5" font-family="Helvetica,sans-Serif" font-size="10.00">hws::gpu_intel_hardware</text>
<text text-anchor="middle" x="379" y="-154.5" font-family="Helvetica,sans-Serif" font-size="10.00">_sampler</text>
</a>
</g>
</g>
<!-- Node2 -->
<g id="node2" class="node">
<title>Node2</title>
<g id="a_node2"><a xlink:href="classhws_1_1hardware__sampler.html" target="_top" xlink:title="The base class for all specialized hardware samplers.">
<polygon fill="white" stroke="black" points="12.5,-295 12.5,-314 145.5,-314 145.5,-295 12.5,-295"/>
<text text-anchor="middle" x="79" y="-302" font-family="Helvetica,sans-Serif" font-size="10.00">hws::hardware_sampler</text>
</a>
</g>
</g>
<!-- Node2&#45;&gt;Node1 -->
<g id="edge1" class="edge">
<title>Node2&#45;&gt;Node1</title>
<path fill="none" stroke="midnightblue" d="M155.88,-299.03C198.25,-293.29 250.66,-281.53 292,-257.5 326.43,-237.48 354.76,-199.01 368.68,-177.68"/>
<polygon fill="midnightblue" stroke="midnightblue" points="155.37,-295.57 145.89,-300.3 156.26,-302.51 155.37,-295.57"/>
</g>
<!-- Node3 -->
<g id="node3" class="node">
<title>Node3</title>
<g id="a_node3"><a xlink:href="classhws_1_1level__zero__clock__samples.html" target="_top" xlink:title="Wrapper class for all clock related Level Zero hardware samples.">
<polygon fill="white" stroke="black" points="17.5,-245.5 17.5,-275.5 140.5,-275.5 140.5,-245.5 17.5,-245.5"/>
<text text-anchor="start" x="25.5" y="-263.5" font-family="Helvetica,sans-Serif" font-size="10.00">hws::level_zero_clock</text>
<text text-anchor="middle" x="79" y="-252.5" font-family="Helvetica,sans-Serif" font-size="10.00">_samples</text>
</a>
</g>
</g>
<!-- Node3&#45;&gt;Node1 -->
<g id="edge2" class="edge">
<title>Node3&#45;&gt;Node1</title>
<path fill="none" stroke="#9a32cd" stroke-dasharray="5,2" d="M150.59,-248.94C192.54,-240.83 246.31,-228.24 292,-210.5 314.47,-201.77 338.28,-188.1 355.13,-177.57"/>
<polygon fill="#9a32cd" stroke="#9a32cd" points="149.91,-245.51 140.74,-250.81 151.21,-252.39 149.91,-245.51"/>
<text text-anchor="middle" x="234" y="-245.5" font-family="Helvetica,sans-Serif" font-size="10.00"> clock_samples_</text>
</g>
<!-- Node4 -->
<g id="node4" class="node">
<title>Node4</title>
<g id="a_node4"><a xlink:href="classhws_1_1level__zero__power__samples.html" target="_top" xlink:title="Wrapper class for all power related Level Zero hardware samples.">
<polygon fill="white" stroke="black" points="15,-196.5 15,-226.5 143,-226.5 143,-196.5 15,-196.5"/>
<text text-anchor="start" x="23" y="-214.5" font-family="Helvetica,sans-Serif" font-size="10.00">hws::level_zero_power</text>
<text text-anchor="middle" x="79" y="-203.5" font-family="Helvetica,sans-Serif" font-size="10.00">_samples</text>
</a>
</g>
</g>
<!-- Node4&#45;&gt;Node1 -->
<g id="edge3" class="edge">
<title>Node4&#45;&gt;Node1</title>
<path fill="none" stroke="#9a32cd" stroke-dasharray="5,2" d="M153,-200.04C193.89,-193.56 245.81,-185.23 292,-177.5 297.83,-176.52 303.88,-175.5 309.95,-174.46"/>
<polygon fill="#9a32cd" stroke="#9a32cd" points="152.45,-196.59 143.12,-201.61 153.54,-203.5 152.45,-196.59"/>
<text text-anchor="middle" x="234" y="-198.5" font-family="Helvetica,sans-Serif" font-size="10.00"> power_samples_</text>
</g>
<!-- Node5 -->
<g id="node5" class="node">
<title>Node5</title>
<g id="a_node5"><a xlink:href="classhws_1_1level__zero__memory__samples.html" target="_top" xlink:title="Wrapper class for all memory related Level Zero hardware samples.">
<polygon fill="white" stroke="black" points="9.5,-147.5 9.5,-177.5 148.5,-177.5 148.5,-147.5 9.5,-147.5"/>
<text text-anchor="start" x="17.5" y="-165.5" font-family="Helvetica,sans-Serif" font-size="10.00">hws::level_zero_memory</text>
<text text-anchor="middle" x="79" y="-154.5" font-family="Helvetica,sans-Serif" font-size="10.00">_samples</text>
</a>
</g>
</g>
<!-- Node5&#45;&gt;Node1 -->
<g id="edge4" class="edge">
<title>Node5&#45;&gt;Node1</title>
<path fill="none" stroke="#9a32cd" stroke-dasharray="5,2" d="M158.88,-162.5C205.87,-162.5 264.91,-162.5 309.86,-162.5"/>
<polygon fill="#9a32cd" stroke="#9a32cd" points="158.74,-159 148.74,-162.5 158.74,-166 158.74,-159"/>
<text text-anchor="middle" x="234" y="-165.5" font-family="Helvetica,sans-Serif" font-size="10.00"> memory_samples_</text>
</g>
<!-- Node6 -->
<g id="node6" class="node">
<title>Node6</title>
<g id="a_node6"><a xlink:href="classhws_1_1level__zero__temperature__samples.html" target="_top" xlink:title="Wrapper class for all temperature related Level Zero hardware samples.">
<polygon fill="white" stroke="black" points="0,-98.5 0,-128.5 158,-128.5 158,-98.5 0,-98.5"/>
<text text-anchor="start" x="8" y="-116.5" font-family="Helvetica,sans-Serif" font-size="10.00">hws::level_zero_temperature</text>
<text text-anchor="middle" x="79" y="-105.5" font-family="Helvetica,sans-Serif" font-size="10.00">_samples</text>
</a>
</g>
</g>
<!-- Node6&#45;&gt;Node1 -->
<g id="edge5" class="edge">
<title>Node6&#45;&gt;Node1</title>
<path fill="none" stroke="#9a32cd" stroke-dasharray="5,2" d="M168.11,-127.36C206.23,-133.42 251.33,-140.69 292,-147.5 297.83,-148.48 303.88,-149.5 309.95,-150.54"/>
<polygon fill="#9a32cd" stroke="#9a32cd" points="168.5,-123.87 158.07,-125.76 167.4,-130.79 168.5,-123.87"/>
<text text-anchor="middle" x="234" y="-150.5" font-family="Helvetica,sans-Serif" font-size="10.00"> temperature_samples_</text>
</g>
<!-- Node7 -->
<g id="node7" class="node">
<title>Node7</title>
<g id="a_node7"><a xlink:href="classhws_1_1level__zero__general__samples.html" target="_top" xlink:title="Wrapper class for all general Level Zero hardware samples.">
<polygon fill="white" stroke="black" points="12,-49.5 12,-79.5 146,-79.5 146,-49.5 12,-49.5"/>
<text text-anchor="start" x="20" y="-67.5" font-family="Helvetica,sans-Serif" font-size="10.00">hws::level_zero_general</text>
<text text-anchor="middle" x="79" y="-56.5" font-family="Helvetica,sans-Serif" font-size="10.00">_samples</text>
</a>
</g>
</g>
<!-- Node7&#45;&gt;Node1 -->
<g id="edge6" class="edge">
<title>Node7&#45;&gt;Node1</title>
<path fill="none" stroke="#9a32cd" stroke-dasharray="5,2" d="M156.37,-76.59C197.44,-84.46 248.44,-96.48 292,-113.5 314.73,-122.38 338.7,-136.49 355.55,-147.29"/>
<polygon fill="#9a32cd" stroke="#9a32cd" points="156.9,-73.13 146.43,-74.73 155.61,-80.01 156.9,-73.13"/>
<text text-anchor="middle" x="234" y="-116.5" font-family="Helvetica,sans-Serif" font-size="10.00"> general_samples_</text>
</g>
<!-- Node8 -->
<g id="node8" class="node">
<title>Node8</title>
<g id="a_node8"><a xlink:href="classhws_1_1detail_1_1level__zero__device__handle.html" target="_top" xlink:title="PImpl class to hide the ze_driver_handle_t and ze_device_handle_t handles from the public interface (...">
<polygon fill="white" stroke="black" points="19.5,-0.5 19.5,-30.5 138.5,-30.5 138.5,-0.5 19.5,-0.5"/>
<text text-anchor="start" x="27.5" y="-18.5" font-family="Helvetica,sans-Serif" font-size="10.00">hws::detail::level</text>
<text text-anchor="middle" x="79" y="-7.5" font-family="Helvetica,sans-Serif" font-size="10.00">_zero_device_handle</text>
</a>
</g>
</g>
<!-- Node8&#45;&gt;Node1 -->
<g id="edge7" class="edge">
<title>Node8&#45;&gt;Node1</title>
<path fill="none" stroke="#9a32cd" stroke-dasharray="5,2" d="M148.86,-21.03C192.41,-27.02 248.48,-39.5 292,-65.5 326.78,-86.28 355.17,-125.79 368.96,-147.42"/>
<polygon fill="#9a32cd" stroke="#9a32cd" points="149.29,-17.56 138.92,-19.74 148.39,-24.5 149.29,-17.56"/>
<text text-anchor="middle" x="234" y="-68.5" font-family="Helvetica,sans-Serif" font-size="10.00"> device_</text>
</g>
</g>
</svg>
