<?xml version="1.0" encoding="UTF-8" standalone="no"?>
<!DOCTYPE svg PUBLIC "-//W3C//DTD SVG 1.1//EN"
 "http://www.w3.org/Graphics/SVG/1.1/DTD/svg11.dtd">
<!-- Generated by graphviz version 2.43.0 (0)
 -->
<!-- Title: hws::hardware_sampler Pages: 1 -->
<svg width="332pt" height="176pt"
 viewBox="0.00 0.00 332.00 175.50" xmlns="http://www.w3.org/2000/svg" xmlns:xlink="http://www.w3.org/1999/xlink">
<g id="graph0" class="graph" transform="scale(1 1) rotate(0) translate(4 171.5)">
<title>hws::hardware_sampler</title>
<polygon fill="white" stroke="transparent" points="-4,4 -4,-171.5 328,-171.5 328,4 -4,4"/>
<!-- Node1 -->
<g id="node1" class="node">
<title>Node1</title>
<g id="a_node1"><a xlink:title="The base class for all specialized hardware samplers.">
<polygon fill="#bfbfbf" stroke="black" points="0,-79 0,-98 133,-98 133,-79 0,-79"/>
<text text-anchor="middle" x="66.5" y="-86" font-family="Helvetica,sans-Serif" font-size="10.00">hws::hardware_sampler</text>
</a>
</g>
</g>
<!-- Node2 -->
<g id="node2" class="node">
<title>Node2</title>
<g id="a_node2"><a xlink:href="classhws_1_1cpu__hardware__sampler.html" target="_top" xlink:title="A hardware sampler for the CPU.">
<polygon fill="white" stroke="black" points="169,-148 169,-167 324,-167 324,-148 169,-148"/>
<text text-anchor="middle" x="246.5" y="-155" font-family="Helvetica,sans-Serif" font-size="10.00">hws::cpu_hardware_sampler</text>
</a>
</g>
</g>
<!-- Node1&#45;&gt;Node2 -->
<g id="edge1" class="edge">
<title>Node1&#45;&gt;Node2</title>
<path fill="none" stroke="midnightblue" d="M93.1,-103.02C113.23,-113.97 142.24,-128.72 169,-138.5 178.9,-142.12 189.76,-145.28 200.11,-147.93"/>
<polygon fill="midnightblue" stroke="midnightblue" points="94.7,-99.91 84.25,-98.14 91.32,-106.04 94.7,-99.91"/>
</g>
<!-- Node3 -->
<g id="node3" class="node">
<title>Node3</title>
<g id="a_node3"><a xlink:href="classhws_1_1gpu__amd__hardware__sampler.html" target="_top" xlink:title="A hardware sampler for AMD GPUs.">
<polygon fill="white" stroke="black" points="177.5,-98.5 177.5,-128.5 315.5,-128.5 315.5,-98.5 177.5,-98.5"/>
<text text-anchor="start" x="185.5" y="-116.5" font-family="Helvetica,sans-Serif" font-size="10.00">hws::gpu_amd_hardware</text>
<text text-anchor="middle" x="246.5" y="-105.5" font-family="Helvetica,sans-Serif" font-size="10.00">_sampler</text>
</a>
</g>
</g>
<!-- Node1&#45;&gt;Node3 -->
<g id="edge2" class="edge">
<title>Node1&#45;&gt;Node3</title>
<path fill="none" stroke="midnightblue" d="M142.98,-99.1C154.42,-100.71 166.16,-102.36 177.43,-103.94"/>
<polygon fill="midnightblue" stroke="midnightblue" points="143.41,-95.63 133.02,-97.7 142.44,-102.56 143.41,-95.63"/>
</g>
<!-- Node4 -->
<g id="node4" class="node">
<title>Node4</title>
<g id="a_node4"><a xlink:href="classhws_1_1gpu__intel__hardware__sampler.html" target="_top" xlink:title="A hardware sampler for Intel GPUs.">
<polygon fill="white" stroke="black" points="177.5,-49.5 177.5,-79.5 315.5,-79.5 315.5,-49.5 177.5,-49.5"/>
<text text-anchor="start" x="185.5" y="-67.5" font-family="Helvetica,sans-Serif" font-size="10.00">hws::gpu_intel_hardware</text>
<text text-anchor="middle" x="246.5" y="-56.5" font-family="Helvetica,sans-Serif" font-size="10.00">_sampler</text>
</a>
</g>
</g>
<!-- Node1&#45;&gt;Node4 -->
<g id="edge3" class="edge">
<title>Node1&#45;&gt;Node4</title>
<path fill="none" stroke="midnightblue" d="M142.98,-78.32C154.42,-76.78 166.16,-75.2 177.43,-73.68"/>
<polygon fill="midnightblue" stroke="midnightblue" points="142.46,-74.86 133.02,-79.67 143.4,-81.8 142.46,-74.86"/>
</g>
<!-- Node5 -->
<g id="node5" class="node">
<title>Node5</title>
<g id="a_node5"><a xlink:href="classhws_1_1gpu__nvidia__hardware__sampler.html" target="_top" xlink:title="A hardware sampler for NVIDIA GPUs.">
<polygon fill="white" stroke="black" points="173.5,-0.5 173.5,-30.5 319.5,-30.5 319.5,-0.5 173.5,-0.5"/>
<text text-anchor="start" x="181.5" y="-18.5" font-family="Helvetica,sans-Serif" font-size="10.00">hws::gpu_nvidia_hardware</text>
<text text-anchor="middle" x="246.5" y="-7.5" font-family="Helvetica,sans-Serif" font-size="10.00">_sampler</text>
</a>
</g>
</g>
<!-- Node1&#45;&gt;Node5 -->
<g id="edge4" class="edge">
<title>Node1&#45;&gt;Node5</title>
<path fill="none" stroke="midnightblue" d="M94.84,-74.42C115.03,-64.3 143.36,-50.71 169,-40.5 177.7,-37.04 187.08,-33.68 196.2,-30.6"/>
<polygon fill="midnightblue" stroke="midnightblue" points="93.24,-71.31 85.9,-78.94 96.4,-77.55 93.24,-71.31"/>
</g>
</g>
</svg>
