<?xml version="1.0" encoding="UTF-8" standalone="no"?>
<!DOCTYPE svg PUBLIC "-//W3C//DTD SVG 1.1//EN"
 "http://www.w3.org/Graphics/SVG/1.1/DTD/svg11.dtd">
<!-- Generated by graphviz version 2.43.0 (0)
 -->
<!-- Title: hws::gpu_nvidia_hardware_sampler Pages: 1 -->
<svg width="466pt" height="273pt"
 viewBox="0.00 0.00 466.00 272.50" xmlns="http://www.w3.org/2000/svg" xmlns:xlink="http://www.w3.org/1999/xlink">
<g id="graph0" class="graph" transform="scale(1 1) rotate(0) translate(4 268.5)">
<title>hws::gpu_nvidia_hardware_sampler</title>
<!-- Node1 -->
<g id="Node000001" class="node">
<title>Node1</title>
<g id="a_Node000001"><a xlink:title="A hardware sampler for NVIDIA GPUs.">
<polygon fill="#999999" stroke="#666666" points="458,-147 312,-147 312,-117 458,-117 458,-147"/>
<text text-anchor="start" x="320" y="-135" font-family="Helvetica,sans-Serif" font-size="10.00">hws::gpu_nvidia_hardware</text>
<text text-anchor="middle" x="385" y="-124" font-family="Helvetica,sans-Serif" font-size="10.00">_sampler</text>
</a>
</g>
</g>
<!-- Node2 -->
<g id="Node000002" class="node">
<title>Node2</title>
<g id="a_Node000002"><a xlink:href="classhws_1_1hardware__sampler.html" target="_top" xlink:title="The base class for all specialized hardware samplers.">
<polygon fill="white" stroke="#666666" points="146.5,-264.5 13.5,-264.5 13.5,-245.5 146.5,-245.5 146.5,-264.5"/>
<text text-anchor="middle" x="80" y="-252.5" font-family="Helvetica,sans-Serif" font-size="10.00">hws::hardware_sampler</text>
</a>
</g>
</g>
<!-- Node2&#45;&gt;Node1 -->
<g id="edge1_Node000001_Node000002" class="edge">
<title>Node2&#45;&gt;Node1</title>
<g id="a_edge1_Node000001_Node000002"><a xlink:title=" ">
<path fill="none" stroke="#63b8ff" d="M157.12,-251C199.29,-246.31 251.6,-236.29 294,-215 326.86,-198.5 356.41,-166.4 372.12,-147.31"/>
<polygon fill="#63b8ff" stroke="#63b8ff" points="156.49,-247.54 146.9,-252.05 157.21,-254.51 156.49,-247.54"/>
</a>
</g>
</g>
<!-- Node3 -->
<g id="Node000003" class="node">
<title>Node3</title>
<g id="a_Node000003"><a xlink:href="classhws_1_1detail_1_1nvml__device__handle.html" target="_top" xlink:title="PImpl class to hide the nvmlDevice_t handle from the public interface (and, therefore,...">
<polygon fill="white" stroke="#666666" points="149,-227 11,-227 11,-197 149,-197 149,-227"/>
<text text-anchor="start" x="19" y="-215" font-family="Helvetica,sans-Serif" font-size="10.00">hws::detail::nvml_device</text>
<text text-anchor="middle" x="80" y="-204" font-family="Helvetica,sans-Serif" font-size="10.00">_handle</text>
</a>
</g>
</g>
<!-- Node3&#45;&gt;Node1 -->
<g id="edge2_Node000001_Node000003" class="edge">
<title>Node3&#45;&gt;Node1</title>
<g id="a_edge2_Node000001_Node000003"><a xlink:title=" ">
<path fill="none" stroke="#9a32cd" stroke-dasharray="5,2" d="M159.44,-203.6C200.22,-197.93 250.49,-188.88 294,-175 316.11,-167.95 339.73,-156.5 357.22,-147.18"/>
<polygon fill="#9a32cd" stroke="#9a32cd" points="158.73,-200.16 149.29,-204.97 159.67,-207.1 158.73,-200.16"/>
</a>
</g>
<text text-anchor="middle" x="236" y="-203" font-family="Helvetica,sans-Serif" font-size="10.00" fill="grey"> device_</text>
</g>
<!-- Node4 -->
<g id="Node000004" class="node">
<title>Node4</title>
<g id="a_Node000004"><a xlink:href="classhws_1_1nvml__general__samples.html" target="_top" xlink:title="Wrapper class for all general NVML hardware samples.">
<polygon fill="white" stroke="#666666" points="157.5,-178.5 2.5,-178.5 2.5,-159.5 157.5,-159.5 157.5,-178.5"/>
<text text-anchor="middle" x="80" y="-166.5" font-family="Helvetica,sans-Serif" font-size="10.00">hws::nvml_general_samples</text>
</a>
</g>
</g>
<!-- Node4&#45;&gt;Node1 -->
<g id="edge3_Node000001_Node000004" class="edge">
<title>Node4&#45;&gt;Node1</title>
<g id="a_edge3_Node000001_Node000004"><a xlink:title=" ">
<path fill="none" stroke="#9a32cd" stroke-dasharray="5,2" d="M167.73,-161.28C206.44,-157.51 252.57,-152.59 294,-147 299.81,-146.22 305.82,-145.35 311.85,-144.43"/>
<polygon fill="#9a32cd" stroke="#9a32cd" points="167.16,-157.81 157.54,-162.26 167.83,-164.78 167.16,-157.81"/>
</a>
</g>
<text text-anchor="middle" x="236" y="-163" font-family="Helvetica,sans-Serif" font-size="10.00" fill="grey"> general_samples_</text>
</g>
<!-- Node5 -->
<g id="Node000005" class="node">
<title>Node5</title>
<g id="a_Node000005"><a xlink:href="classhws_1_1nvml__clock__samples.html" target="_top" xlink:title="Wrapper class for all clock related NVML hardware samples.">
<polygon fill="white" stroke="#666666" points="152,-141.5 8,-141.5 8,-122.5 152,-122.5 152,-141.5"/>
<text text-anchor="middle" x="80" y="-129.5" font-family="Helvetica,sans-Serif" font-size="10.00">hws::nvml_clock_samples</text>
</a>
</g>
</g>
<!-- Node5&#45;&gt;Node1 -->
<g id="edge4_Node000001_Node000005" class="edge">
<title>Node5&#45;&gt;Node1</title>
<g id="a_edge4_Node000001_Node000005"><a xlink:title=" ">
<path fill="none" stroke="#9a32cd" stroke-dasharray="5,2" d="M162.11,-132C208.73,-132 266.79,-132 311.83,-132"/>
<polygon fill="#9a32cd" stroke="#9a32cd" points="162.04,-128.5 152.04,-132 162.04,-135.5 162.04,-128.5"/>
</a>
</g>
<text text-anchor="middle" x="236" y="-135" font-family="Helvetica,sans-Serif" font-size="10.00" fill="grey"> clock_samples_</text>
</g>
<!-- Node6 -->
<g id="Node000006" class="node">
<title>Node6</title>
<g id="a_Node000006"><a xlink:href="classhws_1_1nvml__power__samples.html" target="_top" xlink:title="Wrapper class for all power related NVML hardware samples.">
<polygon fill="white" stroke="#666666" points="154.5,-104.5 5.5,-104.5 5.5,-85.5 154.5,-85.5 154.5,-104.5"/>
<text text-anchor="middle" x="80" y="-92.5" font-family="Helvetica,sans-Serif" font-size="10.00">hws::nvml_power_samples</text>
</a>
</g>
</g>
<!-- Node6&#45;&gt;Node1 -->
<g id="edge5_Node000001_Node000006" class="edge">
<title>Node6&#45;&gt;Node1</title>
<g id="a_edge5_Node000001_Node000006"><a xlink:title=" ">
<path fill="none" stroke="#9a32cd" stroke-dasharray="5,2" d="M164.65,-102.43C203.97,-106.23 251.47,-111.26 294,-117 299.81,-117.78 305.82,-118.65 311.85,-119.57"/>
<polygon fill="#9a32cd" stroke="#9a32cd" points="164.86,-98.93 154.57,-101.46 164.19,-105.9 164.86,-98.93"/>
</a>
</g>
<text text-anchor="middle" x="236" y="-120" font-family="Helvetica,sans-Serif" font-size="10.00" fill="grey"> power_samples_</text>
</g>
<!-- Node7 -->
<g id="Node000007" class="node">
<title>Node7</title>
<g id="a_Node000007"><a xlink:href="classhws_1_1nvml__memory__samples.html" target="_top" xlink:title="Wrapper class for all memory related NVML hardware samples.">
<polygon fill="white" stroke="#666666" points="160,-67.5 0,-67.5 0,-48.5 160,-48.5 160,-67.5"/>
<text text-anchor="middle" x="80" y="-55.5" font-family="Helvetica,sans-Serif" font-size="10.00">hws::nvml_memory_samples</text>
</a>
</g>
</g>
<!-- Node7&#45;&gt;Node1 -->
<g id="edge6_Node000001_Node000007" class="edge">
<title>Node7&#45;&gt;Node1</title>
<g id="a_edge6_Node000001_Node000007"><a xlink:title=" ">
<path fill="none" stroke="#9a32cd" stroke-dasharray="5,2" d="M170.37,-64.27C209,-68.59 254.34,-75.85 294,-88 316.78,-94.98 340.96,-107.09 358.51,-116.84"/>
<polygon fill="#9a32cd" stroke="#9a32cd" points="170.5,-60.77 160.18,-63.19 169.75,-67.73 170.5,-60.77"/>
</a>
</g>
<text text-anchor="middle" x="236" y="-91" font-family="Helvetica,sans-Serif" font-size="10.00" fill="grey"> memory_samples_</text>
</g>
<!-- Node8 -->
<g id="Node000008" class="node">
<title>Node8</title>
<g id="a_Node000008"><a xlink:href="classhws_1_1nvml__temperature__samples.html" target="_top" xlink:title="Wrapper class for all temperature related NVML hardware samples.">
<polygon fill="white" stroke="#666666" points="146.5,-30 13.5,-30 13.5,0 146.5,0 146.5,-30"/>
<text text-anchor="start" x="21.5" y="-18" font-family="Helvetica,sans-Serif" font-size="10.00">hws::nvml_temperature</text>
<text text-anchor="middle" x="80" y="-7" font-family="Helvetica,sans-Serif" font-size="10.00">_samples</text>
</a>
</g>
</g>
<!-- Node8&#45;&gt;Node1 -->
<g id="edge7_Node000001_Node000008" class="edge">
<title>Node8&#45;&gt;Node1</title>
<g id="a_edge7_Node000001_Node000008"><a xlink:title=" ">
<path fill="none" stroke="#9a32cd" stroke-dasharray="5,2" d="M157.01,-16.98C199.15,-20.61 251.47,-29.41 294,-50 326.91,-65.94 356.44,-97.78 372.13,-116.76"/>
<polygon fill="#9a32cd" stroke="#9a32cd" points="157.05,-13.48 146.81,-16.19 156.51,-20.45 157.05,-13.48"/>
</a>
</g>
<text text-anchor="middle" x="236" y="-53" font-family="Helvetica,sans-Serif" font-size="10.00" fill="grey"> temperature_samples_</text>
</g>
</g>
</svg>
