<?xml version="1.0" encoding="UTF-8" standalone="no"?>
<!DOCTYPE svg PUBLIC "-//W3C//DTD SVG 1.1//EN"
 "http://www.w3.org/Graphics/SVG/1.1/DTD/svg11.dtd">
<!-- Generated by graphviz version 2.43.0 (0)
 -->
<!-- Title: hws::hardware_sampler Pages: 1 -->
<svg width="332pt" height="172pt"
 viewBox="0.00 0.00 332.00 171.50" xmlns="http://www.w3.org/2000/svg" xmlns:xlink="http://www.w3.org/1999/xlink">
<g id="graph0" class="graph" transform="scale(1 1) rotate(0) translate(4 167.5)">
<title>hws::hardware_sampler</title>
<!-- Node1 -->
<g id="Node000001" class="node">
<title>Node1</title>
<g id="a_Node000001"><a xlink:title="The base class for all specialized hardware samplers.">
<polygon fill="#999999" stroke="#666666" points="133,-96.5 0,-96.5 0,-77.5 133,-77.5 133,-96.5"/>
<text text-anchor="middle" x="66.5" y="-84.5" font-family="Helvetica,sans-Serif" font-size="10.00">hws::hardware_sampler</text>
</a>
</g>
</g>
<!-- Node2 -->
<g id="Node000002" class="node">
<title>Node2</title>
<g id="a_Node000002"><a xlink:href="classhws_1_1cpu__hardware__sampler.html" target="_top" xlink:title="A hardware sampler for the CPU.">
<polygon fill="white" stroke="#666666" points="324,-163.5 169,-163.5 169,-144.5 324,-144.5 324,-163.5"/>
<text text-anchor="middle" x="246.5" y="-151.5" font-family="Helvetica,sans-Serif" font-size="10.00">hws::cpu_hardware_sampler</text>
</a>
</g>
</g>
<!-- Node1&#45;&gt;Node2 -->
<g id="edge1_Node000001_Node000002" class="edge">
<title>Node1&#45;&gt;Node2</title>
<g id="a_edge1_Node000001_Node000002"><a xlink:title=" ">
<path fill="none" stroke="#63b8ff" d="M93.9,-101.26C114.03,-111.7 142.69,-125.62 169,-135 179.05,-138.59 190.08,-141.75 200.56,-144.42"/>
<polygon fill="#63b8ff" stroke="#63b8ff" points="95.49,-98.15 85.01,-96.6 92.24,-104.34 95.49,-98.15"/>
</a>
</g>
</g>
<!-- Node3 -->
<g id="Node000003" class="node">
<title>Node3</title>
<g id="a_Node000003"><a xlink:href="classhws_1_1gpu__amd__hardware__sampler.html" target="_top" xlink:title="A hardware sampler for AMD GPUs.">
<polygon fill="white" stroke="#666666" points="315.5,-126 177.5,-126 177.5,-96 315.5,-96 315.5,-126"/>
<text text-anchor="start" x="185.5" y="-114" font-family="Helvetica,sans-Serif" font-size="10.00">hws::gpu_amd_hardware</text>
<text text-anchor="middle" x="246.5" y="-103" font-family="Helvetica,sans-Serif" font-size="10.00">_sampler</text>
</a>
</g>
</g>
<!-- Node1&#45;&gt;Node3 -->
<g id="edge2_Node000001_Node000003" class="edge">
<title>Node1&#45;&gt;Node3</title>
<g id="a_edge2_Node000001_Node000003"><a xlink:title=" ">
<path fill="none" stroke="#63b8ff" d="M142.98,-97.18C154.42,-98.72 166.16,-100.3 177.43,-101.82"/>
<polygon fill="#63b8ff" stroke="#63b8ff" points="143.4,-93.7 133.02,-95.83 142.46,-100.64 143.4,-93.7"/>
</a>
</g>
</g>
<!-- Node4 -->
<g id="Node000004" class="node">
<title>Node4</title>
<g id="a_Node000004"><a xlink:href="classhws_1_1gpu__intel__hardware__sampler.html" target="_top" xlink:title="A hardware sampler for Intel GPUs.">
<polygon fill="white" stroke="#666666" points="315.5,-78 177.5,-78 177.5,-48 315.5,-48 315.5,-78"/>
<text text-anchor="start" x="185.5" y="-66" font-family="Helvetica,sans-Serif" font-size="10.00">hws::gpu_intel_hardware</text>
<text text-anchor="middle" x="246.5" y="-55" font-family="Helvetica,sans-Serif" font-size="10.00">_sampler</text>
</a>
</g>
</g>
<!-- Node1&#45;&gt;Node4 -->
<g id="edge3_Node000001_Node000004" class="edge">
<title>Node1&#45;&gt;Node4</title>
<g id="a_edge3_Node000001_Node000004"><a xlink:title=" ">
<path fill="none" stroke="#63b8ff" d="M142.98,-76.82C154.42,-75.28 166.16,-73.7 177.43,-72.18"/>
<polygon fill="#63b8ff" stroke="#63b8ff" points="142.46,-73.36 133.02,-78.17 143.4,-80.3 142.46,-73.36"/>
</a>
</g>
</g>
<!-- Node5 -->
<g id="Node000005" class="node">
<title>Node5</title>
<g id="a_Node000005"><a xlink:href="classhws_1_1gpu__nvidia__hardware__sampler.html" target="_top" xlink:title="A hardware sampler for NVIDIA GPUs.">
<polygon fill="white" stroke="#666666" points="319.5,-30 173.5,-30 173.5,0 319.5,0 319.5,-30"/>
<text text-anchor="start" x="181.5" y="-18" font-family="Helvetica,sans-Serif" font-size="10.00">hws::gpu_nvidia_hardware</text>
<text text-anchor="middle" x="246.5" y="-7" font-family="Helvetica,sans-Serif" font-size="10.00">_sampler</text>
</a>
</g>
</g>
<!-- Node1&#45;&gt;Node5 -->
<g id="edge4_Node000001_Node000005" class="edge">
<title>Node1&#45;&gt;Node5</title>
<g id="a_edge4_Node000001_Node000005"><a xlink:title=" ">
<path fill="none" stroke="#63b8ff" d="M94.8,-72.83C114.98,-62.67 143.3,-49.05 169,-39 177.04,-35.86 185.67,-32.83 194.13,-30.04"/>
<polygon fill="#63b8ff" stroke="#63b8ff" points="93.2,-69.72 85.87,-77.37 96.37,-75.96 93.2,-69.72"/>
</a>
</g>
</g>
</g>
</svg>
