<?xml version="1.0" encoding="UTF-8" standalone="no"?>
<!DOCTYPE svg PUBLIC "-//W3C//DTD SVG 1.1//EN"
 "http://www.w3.org/Graphics/SVG/1.1/DTD/svg11.dtd">
<!-- Generated by graphviz version 2.43.0 (0)
 -->
<!-- Title: hws::gpu_amd_hardware_sampler Pages: 1 -->
<svg width="454pt" height="268pt"
 viewBox="0.00 0.00 454.00 267.50" xmlns="http://www.w3.org/2000/svg" xmlns:xlink="http://www.w3.org/1999/xlink">
<g id="graph0" class="graph" transform="scale(1 1) rotate(0) translate(4 263.5)">
<title>hws::gpu_amd_hardware_sampler</title>
<!-- Node1 -->
<g id="Node000001" class="node">
<title>Node1</title>
<g id="a_Node000001"><a xlink:title="A hardware sampler for AMD GPUs.">
<polygon fill="#999999" stroke="#666666" points="446,-150 308,-150 308,-120 446,-120 446,-150"/>
<text text-anchor="start" x="316" y="-138" font-family="Helvetica,sans-Serif" font-size="10.00">hws::gpu_amd_hardware</text>
<text text-anchor="middle" x="377" y="-127" font-family="Helvetica,sans-Serif" font-size="10.00">_sampler</text>
</a>
</g>
</g>
<!-- Node2 -->
<g id="Node000002" class="node">
<title>Node2</title>
<g id="a_Node000002"><a xlink:href="classhws_1_1hardware__sampler.html" target="_top" xlink:title="The base class for all specialized hardware samplers.">
<polygon fill="white" stroke="#666666" points="144.5,-259.5 11.5,-259.5 11.5,-240.5 144.5,-240.5 144.5,-259.5"/>
<text text-anchor="middle" x="78" y="-247.5" font-family="Helvetica,sans-Serif" font-size="10.00">hws::hardware_sampler</text>
</a>
</g>
</g>
<!-- Node2&#45;&gt;Node1 -->
<g id="edge1_Node000001_Node000002" class="edge">
<title>Node2&#45;&gt;Node1</title>
<g id="a_edge1_Node000001_Node000002"><a xlink:title=" ">
<path fill="none" stroke="#63b8ff" d="M154.91,-243.16C196.4,-237.25 247.78,-226.28 290,-206 318.8,-192.17 346.2,-166.67 362.04,-150.29"/>
<polygon fill="#63b8ff" stroke="#63b8ff" points="154.3,-239.71 144.86,-244.53 155.24,-246.65 154.3,-239.71"/>
</a>
</g>
</g>
<!-- Node3 -->
<g id="Node000003" class="node">
<title>Node3</title>
<g id="a_Node000003"><a xlink:href="classhws_1_1rocm__smi__general__samples.html" target="_top" xlink:title="Wrapper class for all general ROCm SMI hardware samples.">
<polygon fill="white" stroke="#666666" points="144,-222 12,-222 12,-192 144,-192 144,-222"/>
<text text-anchor="start" x="20" y="-210" font-family="Helvetica,sans-Serif" font-size="10.00">hws::rocm_smi_general</text>
<text text-anchor="middle" x="78" y="-199" font-family="Helvetica,sans-Serif" font-size="10.00">_samples</text>
</a>
</g>
</g>
<!-- Node3&#45;&gt;Node1 -->
<g id="edge2_Node000001_Node000003" class="edge">
<title>Node3&#45;&gt;Node1</title>
<g id="a_edge2_Node000001_Node000003"><a xlink:title=" ">
<path fill="none" stroke="#9a32cd" stroke-dasharray="5,2" d="M154.32,-195.27C194.88,-188.22 245.56,-178.25 290,-166 306.07,-161.57 323.42,-155.56 338.3,-150.01"/>
<polygon fill="#9a32cd" stroke="#9a32cd" points="153.51,-191.86 144.24,-196.99 154.69,-198.75 153.51,-191.86"/>
</a>
</g>
<text text-anchor="middle" x="232" y="-194" font-family="Helvetica,sans-Serif" font-size="10.00" fill="grey"> general_samples_</text>
</g>
<!-- Node4 -->
<g id="Node000004" class="node">
<title>Node4</title>
<g id="a_Node000004"><a xlink:href="classhws_1_1rocm__smi__clock__samples.html" target="_top" xlink:title="Wrapper class for all clock related ROCm SMI hardware samples.">
<polygon fill="white" stroke="#666666" points="138.5,-174 17.5,-174 17.5,-144 138.5,-144 138.5,-174"/>
<text text-anchor="start" x="25.5" y="-162" font-family="Helvetica,sans-Serif" font-size="10.00">hws::rocm_smi_clock</text>
<text text-anchor="middle" x="78" y="-151" font-family="Helvetica,sans-Serif" font-size="10.00">_samples</text>
</a>
</g>
</g>
<!-- Node4&#45;&gt;Node1 -->
<g id="edge3_Node000001_Node000004" class="edge">
<title>Node4&#45;&gt;Node1</title>
<g id="a_edge3_Node000001_Node000004"><a xlink:title=" ">
<path fill="none" stroke="#9a32cd" stroke-dasharray="5,2" d="M148.74,-153.36C196.72,-149.49 260.13,-144.36 307.78,-140.51"/>
<polygon fill="#9a32cd" stroke="#9a32cd" points="148.43,-149.88 138.75,-154.17 148.99,-156.86 148.43,-149.88"/>
</a>
</g>
<text text-anchor="middle" x="232" y="-154" font-family="Helvetica,sans-Serif" font-size="10.00" fill="grey"> clock_samples_</text>
</g>
<!-- Node5 -->
<g id="Node000005" class="node">
<title>Node5</title>
<g id="a_Node000005"><a xlink:href="classhws_1_1rocm__smi__power__samples.html" target="_top" xlink:title="Wrapper class for all power related ROCm SMI hardware samples.">
<polygon fill="white" stroke="#666666" points="140.5,-126 15.5,-126 15.5,-96 140.5,-96 140.5,-126"/>
<text text-anchor="start" x="23.5" y="-114" font-family="Helvetica,sans-Serif" font-size="10.00">hws::rocm_smi_power</text>
<text text-anchor="middle" x="78" y="-103" font-family="Helvetica,sans-Serif" font-size="10.00">_samples</text>
</a>
</g>
</g>
<!-- Node5&#45;&gt;Node1 -->
<g id="edge4_Node000001_Node000005" class="edge">
<title>Node5&#45;&gt;Node1</title>
<g id="a_edge4_Node000001_Node000005"><a xlink:title=" ">
<path fill="none" stroke="#9a32cd" stroke-dasharray="5,2" d="M151,-116.15C191.8,-119.15 243.77,-123.1 290,-127 295.83,-127.49 301.88,-128.02 307.94,-128.56"/>
<polygon fill="#9a32cd" stroke="#9a32cd" points="151.11,-112.65 140.88,-115.41 150.6,-119.63 151.11,-112.65"/>
</a>
</g>
<text text-anchor="middle" x="232" y="-130" font-family="Helvetica,sans-Serif" font-size="10.00" fill="grey"> power_samples_</text>
</g>
<!-- Node6 -->
<g id="Node000006" class="node">
<title>Node6</title>
<g id="a_Node000006"><a xlink:href="classhws_1_1rocm__smi__memory__samples.html" target="_top" xlink:title="Wrapper class for all memory related ROCm SMI hardware samples.">
<polygon fill="white" stroke="#666666" points="146.5,-78 9.5,-78 9.5,-48 146.5,-48 146.5,-78"/>
<text text-anchor="start" x="17.5" y="-66" font-family="Helvetica,sans-Serif" font-size="10.00">hws::rocm_smi_memory</text>
<text text-anchor="middle" x="78" y="-55" font-family="Helvetica,sans-Serif" font-size="10.00">_samples</text>
</a>
</g>
</g>
<!-- Node6&#45;&gt;Node1 -->
<g id="edge5_Node000001_Node000006" class="edge">
<title>Node6&#45;&gt;Node1</title>
<g id="a_edge5_Node000001_Node000006"><a xlink:title=" ">
<path fill="none" stroke="#9a32cd" stroke-dasharray="5,2" d="M156.72,-73.87C196.92,-80.36 246.53,-89.76 290,-102 307.09,-106.81 325.52,-113.66 340.93,-119.86"/>
<polygon fill="#9a32cd" stroke="#9a32cd" points="157.14,-70.39 146.72,-72.28 156.04,-77.3 157.14,-70.39"/>
</a>
</g>
<text text-anchor="middle" x="232" y="-105" font-family="Helvetica,sans-Serif" font-size="10.00" fill="grey"> memory_samples_</text>
</g>
<!-- Node7 -->
<g id="Node000007" class="node">
<title>Node7</title>
<g id="a_Node000007"><a xlink:href="classhws_1_1rocm__smi__temperature__samples.html" target="_top" xlink:title="Wrapper class for all temperature related ROCm SMI hardware samples.">
<polygon fill="white" stroke="#666666" points="156,-30 0,-30 0,0 156,0 156,-30"/>
<text text-anchor="start" x="8" y="-18" font-family="Helvetica,sans-Serif" font-size="10.00">hws::rocm_smi_temperature</text>
<text text-anchor="middle" x="78" y="-7" font-family="Helvetica,sans-Serif" font-size="10.00">_samples</text>
</a>
</g>
</g>
<!-- Node7&#45;&gt;Node1 -->
<g id="edge6_Node000001_Node000007" class="edge">
<title>Node7&#45;&gt;Node1</title>
<g id="a_edge6_Node000001_Node000007"><a xlink:title=" ">
<path fill="none" stroke="#9a32cd" stroke-dasharray="5,2" d="M166.31,-24.74C205.6,-31.53 251.67,-42.94 290,-62 319.28,-76.56 346.96,-103.19 362.66,-119.95"/>
<polygon fill="#9a32cd" stroke="#9a32cd" points="166.65,-21.25 156.21,-23.07 165.5,-28.16 166.65,-21.25"/>
</a>
</g>
<text text-anchor="middle" x="232" y="-65" font-family="Helvetica,sans-Serif" font-size="10.00" fill="grey"> temperature_samples_</text>
</g>
</g>
</svg>
