<?xml version="1.0" encoding="UTF-8" standalone="no"?>
<!DOCTYPE svg PUBLIC "-//W3C//DTD SVG 1.1//EN"
 "http://www.w3.org/Graphics/SVG/1.1/DTD/svg11.dtd">
<!-- Generated by graphviz version 2.43.0 (0)
 -->
<!-- Title: hws::cpu_hardware_sampler Pages: 1 -->
<svg width="467pt" height="318pt"
 viewBox="0.00 0.00 467.00 318.00" xmlns="http://www.w3.org/2000/svg" xmlns:xlink="http://www.w3.org/1999/xlink">
<g id="graph0" class="graph" transform="scale(1 1) rotate(0) translate(4 314)">
<title>hws::cpu_hardware_sampler</title>
<polygon fill="white" stroke="transparent" points="-4,4 -4,-314 463,-314 463,4 -4,4"/>
<!-- Node1 -->
<g id="node1" class="node">
<title>Node1</title>
<g id="a_node1"><a xlink:title="A hardware sampler for the CPU.">
<polygon fill="#bfbfbf" stroke="black" points="304,-148.5 304,-167.5 459,-167.5 459,-148.5 304,-148.5"/>
<text text-anchor="middle" x="381.5" y="-155.5" font-family="Helvetica,sans-Serif" font-size="10.00">hws::cpu_hardware_sampler</text>
</a>
</g>
</g>
<!-- Node2 -->
<g id="node2" class="node">
<title>Node2</title>
<g id="a_node2"><a xlink:href="classhws_1_1hardware__sampler.html" target="_top" xlink:title="The base class for all specialized hardware samplers.">
<polygon fill="white" stroke="black" points="9.5,-290.5 9.5,-309.5 142.5,-309.5 142.5,-290.5 9.5,-290.5"/>
<text text-anchor="middle" x="76" y="-297.5" font-family="Helvetica,sans-Serif" font-size="10.00">hws::hardware_sampler</text>
</a>
</g>
</g>
<!-- Node2&#45;&gt;Node1 -->
<g id="edge1" class="edge">
<title>Node2&#45;&gt;Node1</title>
<path fill="none" stroke="midnightblue" d="M153.02,-300.96C194.59,-298.49 245.67,-290.37 286,-268 330.25,-243.45 363.27,-189.64 375.42,-167.65"/>
<polygon fill="midnightblue" stroke="midnightblue" points="152.75,-297.47 142.94,-301.46 153.1,-304.46 152.75,-297.47"/>
</g>
<!-- Node3 -->
<g id="node3" class="node">
<title>Node3</title>
<g id="a_node3"><a xlink:href="classhws_1_1cpu__memory__samples.html" target="_top" xlink:title="Wrapper class for all memory related CPU hardware samples.">
<polygon fill="white" stroke="black" points="0,-252.5 0,-271.5 152,-271.5 152,-252.5 0,-252.5"/>
<text text-anchor="middle" x="76" y="-259.5" font-family="Helvetica,sans-Serif" font-size="10.00">hws::cpu_memory_samples</text>
</a>
</g>
</g>
<!-- Node3&#45;&gt;Node1 -->
<g id="edge2" class="edge">
<title>Node3&#45;&gt;Node1</title>
<path fill="none" stroke="#9a32cd" stroke-dasharray="5,2" d="M162.46,-254.86C201.27,-249.52 247.09,-240.21 286,-224 319.8,-209.92 353.57,-182.24 370.08,-167.6"/>
<polygon fill="#9a32cd" stroke="#9a32cd" points="161.7,-251.43 152.24,-256.2 162.6,-258.37 161.7,-251.43"/>
<text text-anchor="middle" x="228" y="-256" font-family="Helvetica,sans-Serif" font-size="10.00"> memory_samples_</text>
</g>
<!-- Node4 -->
<g id="node4" class="node">
<title>Node4</title>
<g id="a_node4"><a xlink:href="classhws_1_1cpu__general__samples.html" target="_top" xlink:title="Wrapper class for all general CPU hardware samples.">
<polygon fill="white" stroke="black" points="2,-214.5 2,-233.5 150,-233.5 150,-214.5 2,-214.5"/>
<text text-anchor="middle" x="76" y="-221.5" font-family="Helvetica,sans-Serif" font-size="10.00">hws::cpu_general_samples</text>
</a>
</g>
</g>
<!-- Node4&#45;&gt;Node1 -->
<g id="edge3" class="edge">
<title>Node4&#45;&gt;Node1</title>
<path fill="none" stroke="#9a32cd" stroke-dasharray="5,2" d="M152.77,-212.88C192.66,-206.45 242.24,-197.55 286,-187 308.69,-181.53 333.94,-173.69 352.63,-167.54"/>
<polygon fill="#9a32cd" stroke="#9a32cd" points="152.18,-209.43 142.85,-214.46 153.28,-216.34 152.18,-209.43"/>
<text text-anchor="middle" x="228" y="-212" font-family="Helvetica,sans-Serif" font-size="10.00"> general_samples_</text>
</g>
<!-- Node5 -->
<g id="node5" class="node">
<title>Node5</title>
<g id="a_node5"><a xlink:href="classhws_1_1cpu__idle__states__samples.html" target="_top" xlink:title="Wrapper class for all idle state related CPU hardware samples.">
<polygon fill="white" stroke="black" points="17,-165 17,-195 135,-195 135,-165 17,-165"/>
<text text-anchor="start" x="25" y="-183" font-family="Helvetica,sans-Serif" font-size="10.00">hws::cpu_idle_states</text>
<text text-anchor="middle" x="76" y="-172" font-family="Helvetica,sans-Serif" font-size="10.00">_samples</text>
</a>
</g>
</g>
<!-- Node5&#45;&gt;Node1 -->
<g id="edge4" class="edge">
<title>Node5&#45;&gt;Node1</title>
<path fill="none" stroke="#9a32cd" stroke-dasharray="5,2" d="M145.26,-175.05C192.37,-171.64 255.05,-167.09 303.87,-163.55"/>
<polygon fill="#9a32cd" stroke="#9a32cd" points="144.88,-171.57 135.16,-175.78 145.39,-178.55 144.88,-171.57"/>
<text text-anchor="middle" x="228" y="-175" font-family="Helvetica,sans-Serif" font-size="10.00"> idle_state_samples_</text>
</g>
<!-- Node6 -->
<g id="node6" class="node">
<title>Node6</title>
<g id="a_node6"><a xlink:href="classhws_1_1cpu__clock__samples.html" target="_top" xlink:title="Wrapper class for all clock related CPU hardware samples.">
<polygon fill="white" stroke="black" points="7.5,-126.5 7.5,-145.5 144.5,-145.5 144.5,-126.5 7.5,-126.5"/>
<text text-anchor="middle" x="76" y="-133.5" font-family="Helvetica,sans-Serif" font-size="10.00">hws::cpu_clock_samples</text>
</a>
</g>
</g>
<!-- Node6&#45;&gt;Node1 -->
<g id="edge5" class="edge">
<title>Node6&#45;&gt;Node1</title>
<path fill="none" stroke="#9a32cd" stroke-dasharray="5,2" d="M154.85,-140.89C194.18,-143.44 242.63,-146.71 286,-150 291.83,-150.44 297.86,-150.92 303.92,-151.4"/>
<polygon fill="#9a32cd" stroke="#9a32cd" points="155,-137.39 144.79,-140.24 154.55,-144.38 155,-137.39"/>
<text text-anchor="middle" x="228" y="-153" font-family="Helvetica,sans-Serif" font-size="10.00"> clock_samples_</text>
</g>
<!-- Node7 -->
<g id="node7" class="node">
<title>Node7</title>
<g id="a_node7"><a xlink:href="classhws_1_1cpu__gfx__samples.html" target="_top" xlink:title="Wrapper class for all gfx (iGPU) related CPU hardware samples.">
<polygon fill="white" stroke="black" points="12.5,-88.5 12.5,-107.5 139.5,-107.5 139.5,-88.5 12.5,-88.5"/>
<text text-anchor="middle" x="76" y="-95.5" font-family="Helvetica,sans-Serif" font-size="10.00">hws::cpu_gfx_samples</text>
</a>
</g>
</g>
<!-- Node7&#45;&gt;Node1 -->
<g id="edge6" class="edge">
<title>Node7&#45;&gt;Node1</title>
<path fill="none" stroke="#9a32cd" stroke-dasharray="5,2" d="M149.76,-104.86C190.21,-109.48 241.25,-116.64 286,-127 310.06,-132.57 336.72,-141.59 355.58,-148.47"/>
<polygon fill="#9a32cd" stroke="#9a32cd" points="150.05,-101.37 139.72,-103.74 149.27,-108.32 150.05,-101.37"/>
<text text-anchor="middle" x="228" y="-130" font-family="Helvetica,sans-Serif" font-size="10.00"> gfx_samples_</text>
</g>
<!-- Node8 -->
<g id="node8" class="node">
<title>Node8</title>
<g id="a_node8"><a xlink:href="classhws_1_1cpu__temperature__samples.html" target="_top" xlink:title="Wrapper class for all temperature related CPU hardware samples.">
<polygon fill="white" stroke="black" points="13.5,-39 13.5,-69 138.5,-69 138.5,-39 13.5,-39"/>
<text text-anchor="start" x="21.5" y="-57" font-family="Helvetica,sans-Serif" font-size="10.00">hws::cpu_temperature</text>
<text text-anchor="middle" x="76" y="-46" font-family="Helvetica,sans-Serif" font-size="10.00">_samples</text>
</a>
</g>
</g>
<!-- Node8&#45;&gt;Node1 -->
<g id="edge7" class="edge">
<title>Node8&#45;&gt;Node1</title>
<path fill="none" stroke="#9a32cd" stroke-dasharray="5,2" d="M148.87,-59.39C190.22,-64.35 242.44,-73.85 286,-92 319.8,-106.08 353.57,-133.76 370.08,-148.4"/>
<polygon fill="#9a32cd" stroke="#9a32cd" points="149.2,-55.91 138.87,-58.25 148.41,-62.86 149.2,-55.91"/>
<text text-anchor="middle" x="228" y="-95" font-family="Helvetica,sans-Serif" font-size="10.00"> temperature_samples_</text>
</g>
<!-- Node9 -->
<g id="node9" class="node">
<title>Node9</title>
<g id="a_node9"><a xlink:href="classhws_1_1cpu__power__samples.html" target="_top" xlink:title="Wrapper class for all power related CPU hardware samples.">
<polygon fill="white" stroke="black" points="5.5,-0.5 5.5,-19.5 146.5,-19.5 146.5,-0.5 5.5,-0.5"/>
<text text-anchor="middle" x="76" y="-7.5" font-family="Helvetica,sans-Serif" font-size="10.00">hws::cpu_power_samples</text>
</a>
</g>
</g>
<!-- Node9&#45;&gt;Node1 -->
<g id="edge8" class="edge">
<title>Node9&#45;&gt;Node1</title>
<path fill="none" stroke="#9a32cd" stroke-dasharray="5,2" d="M157.1,-11.46C197.95,-15.25 247.09,-24.71 286,-47 330.14,-72.29 363.22,-126.3 375.4,-148.33"/>
<polygon fill="#9a32cd" stroke="#9a32cd" points="157.15,-7.95 146.9,-10.61 156.58,-14.93 157.15,-7.95"/>
<text text-anchor="middle" x="228" y="-50" font-family="Helvetica,sans-Serif" font-size="10.00"> power_samples_</text>
</g>
</g>
</svg>
