<?xml version="1.0" encoding="UTF-8" standalone="no"?>
<!DOCTYPE svg PUBLIC "-//W3C//DTD SVG 1.1//EN"
 "http://www.w3.org/Graphics/SVG/1.1/DTD/svg11.dtd">
<!-- Generated by graphviz version 2.43.0 (0)
 -->
<!-- Title: hws::gpu_nvidia_hardware_sampler Pages: 1 -->
<svg width="466pt" height="279pt"
 viewBox="0.00 0.00 466.00 279.00" xmlns="http://www.w3.org/2000/svg" xmlns:xlink="http://www.w3.org/1999/xlink">
<g id="graph0" class="graph" transform="scale(1 1) rotate(0) translate(4 275)">
<title>hws::gpu_nvidia_hardware_sampler</title>
<polygon fill="white" stroke="transparent" points="-4,4 -4,-275 462,-275 462,4 -4,4"/>
<!-- Node1 -->
<g id="node1" class="node">
<title>Node1</title>
<g id="a_node1"><a xlink:title="A hardware sampler for NVIDIA GPUs.">
<polygon fill="#bfbfbf" stroke="black" points="312,-132 312,-162 458,-162 458,-132 312,-132"/>
<text text-anchor="start" x="320" y="-150" font-family="Helvetica,sans-Serif" font-size="10.00">hws::gpu_nvidia_hardware</text>
<text text-anchor="middle" x="385" y="-139" font-family="Helvetica,sans-Serif" font-size="10.00">_sampler</text>
</a>
</g>
</g>
<!-- Node2 -->
<g id="node2" class="node">
<title>Node2</title>
<g id="a_node2"><a xlink:href="classhws_1_1hardware__sampler.html" target="_top" xlink:title="The base class for all specialized hardware samplers.">
<polygon fill="white" stroke="black" points="13.5,-251.5 13.5,-270.5 146.5,-270.5 146.5,-251.5 13.5,-251.5"/>
<text text-anchor="middle" x="80" y="-258.5" font-family="Helvetica,sans-Serif" font-size="10.00">hws::hardware_sampler</text>
</a>
</g>
</g>
<!-- Node2&#45;&gt;Node1 -->
<g id="edge1" class="edge">
<title>Node2&#45;&gt;Node1</title>
<path fill="none" stroke="midnightblue" d="M156.94,-259.77C199.06,-256.55 251.37,-248.24 294,-228 326.85,-212.4 356.4,-180.9 372.11,-162.1"/>
<polygon fill="midnightblue" stroke="midnightblue" points="156.48,-256.29 146.74,-260.46 156.96,-263.27 156.48,-256.29"/>
</g>
<!-- Node3 -->
<g id="node3" class="node">
<title>Node3</title>
<g id="a_node3"><a xlink:href="classhws_1_1nvml__memory__samples.html" target="_top" xlink:title="Wrapper class for all memory related NVML hardware samples.">
<polygon fill="white" stroke="black" points="0,-213.5 0,-232.5 160,-232.5 160,-213.5 0,-213.5"/>
<text text-anchor="middle" x="80" y="-220.5" font-family="Helvetica,sans-Serif" font-size="10.00">hws::nvml_memory_samples</text>
</a>
</g>
</g>
<!-- Node3&#45;&gt;Node1 -->
<g id="edge2" class="edge">
<title>Node3&#45;&gt;Node1</title>
<path fill="none" stroke="#9a32cd" stroke-dasharray="5,2" d="M170.32,-215.04C208.94,-210.11 254.29,-202.27 294,-190 316.34,-183.1 340.14,-171.52 357.66,-162.11"/>
<polygon fill="#9a32cd" stroke="#9a32cd" points="169.63,-211.6 160.14,-216.3 170.49,-218.55 169.63,-211.6"/>
<text text-anchor="middle" x="236" y="-216" font-family="Helvetica,sans-Serif" font-size="10.00"> memory_samples_</text>
</g>
<!-- Node4 -->
<g id="node4" class="node">
<title>Node4</title>
<g id="a_node4"><a xlink:href="classhws_1_1nvml__general__samples.html" target="_top" xlink:title="Wrapper class for all general NVML hardware samples.">
<polygon fill="white" stroke="black" points="2.5,-175.5 2.5,-194.5 157.5,-194.5 157.5,-175.5 2.5,-175.5"/>
<text text-anchor="middle" x="80" y="-182.5" font-family="Helvetica,sans-Serif" font-size="10.00">hws::nvml_general_samples</text>
</a>
</g>
</g>
<!-- Node4&#45;&gt;Node1 -->
<g id="edge3" class="edge">
<title>Node4&#45;&gt;Node1</title>
<path fill="none" stroke="#9a32cd" stroke-dasharray="5,2" d="M167.72,-176.78C206.43,-172.81 252.56,-167.69 294,-162 299.81,-161.2 305.81,-160.32 311.84,-159.4"/>
<polygon fill="#9a32cd" stroke="#9a32cd" points="167.13,-173.32 157.53,-177.81 167.84,-180.28 167.13,-173.32"/>
<text text-anchor="middle" x="236" y="-178" font-family="Helvetica,sans-Serif" font-size="10.00"> general_samples_</text>
</g>
<!-- Node5 -->
<g id="node5" class="node">
<title>Node5</title>
<g id="a_node5"><a xlink:href="classhws_1_1nvml__power__samples.html" target="_top" xlink:title="Wrapper class for all power related NVML hardware samples.">
<polygon fill="white" stroke="black" points="5.5,-137.5 5.5,-156.5 154.5,-156.5 154.5,-137.5 5.5,-137.5"/>
<text text-anchor="middle" x="80" y="-144.5" font-family="Helvetica,sans-Serif" font-size="10.00">hws::nvml_power_samples</text>
</a>
</g>
</g>
<!-- Node5&#45;&gt;Node1 -->
<g id="edge4" class="edge">
<title>Node5&#45;&gt;Node1</title>
<path fill="none" stroke="#9a32cd" stroke-dasharray="5,2" d="M165,-147C211.1,-147 267.67,-147 311.77,-147"/>
<polygon fill="#9a32cd" stroke="#9a32cd" points="164.73,-143.5 154.73,-147 164.73,-150.5 164.73,-143.5"/>
<text text-anchor="middle" x="236" y="-150" font-family="Helvetica,sans-Serif" font-size="10.00"> power_samples_</text>
</g>
<!-- Node6 -->
<g id="node6" class="node">
<title>Node6</title>
<g id="a_node6"><a xlink:href="classhws_1_1nvml__temperature__samples.html" target="_top" xlink:title="Wrapper class for all temperature related NVML hardware samples.">
<polygon fill="white" stroke="black" points="13.5,-88 13.5,-118 146.5,-118 146.5,-88 13.5,-88"/>
<text text-anchor="start" x="21.5" y="-106" font-family="Helvetica,sans-Serif" font-size="10.00">hws::nvml_temperature</text>
<text text-anchor="middle" x="80" y="-95" font-family="Helvetica,sans-Serif" font-size="10.00">_samples</text>
</a>
</g>
</g>
<!-- Node6&#45;&gt;Node1 -->
<g id="edge5" class="edge">
<title>Node6&#45;&gt;Node1</title>
<path fill="none" stroke="#9a32cd" stroke-dasharray="5,2" d="M156.92,-112.78C197.61,-118.16 248.59,-125.13 294,-132 299.79,-132.88 305.79,-133.81 311.82,-134.78"/>
<polygon fill="#9a32cd" stroke="#9a32cd" points="157.17,-109.28 146.8,-111.44 156.26,-116.22 157.17,-109.28"/>
<text text-anchor="middle" x="236" y="-135" font-family="Helvetica,sans-Serif" font-size="10.00"> temperature_samples_</text>
</g>
<!-- Node7 -->
<g id="node7" class="node">
<title>Node7</title>
<g id="a_node7"><a xlink:href="classhws_1_1detail_1_1nvml__device__handle.html" target="_top" xlink:title="PImpl class to hide the nvmlDevice_t handle from the public interface (and, therefore,...">
<polygon fill="white" stroke="black" points="11,-39 11,-69 149,-69 149,-39 11,-39"/>
<text text-anchor="start" x="19" y="-57" font-family="Helvetica,sans-Serif" font-size="10.00">hws::detail::nvml_device</text>
<text text-anchor="middle" x="80" y="-46" font-family="Helvetica,sans-Serif" font-size="10.00">_handle</text>
</a>
</g>
</g>
<!-- Node7&#45;&gt;Node1 -->
<g id="edge6" class="edge">
<title>Node7&#45;&gt;Node1</title>
<path fill="none" stroke="#9a32cd" stroke-dasharray="5,2" d="M159.36,-65.72C200.23,-73.13 250.62,-84.31 294,-100 317.21,-108.39 341.95,-121.66 359.6,-131.96"/>
<polygon fill="#9a32cd" stroke="#9a32cd" points="159.91,-62.27 149.46,-63.97 158.69,-69.16 159.91,-62.27"/>
<text text-anchor="middle" x="236" y="-103" font-family="Helvetica,sans-Serif" font-size="10.00"> device_</text>
</g>
<!-- Node8 -->
<g id="node8" class="node">
<title>Node8</title>
<g id="a_node8"><a xlink:href="classhws_1_1nvml__clock__samples.html" target="_top" xlink:title="Wrapper class for all clock related NVML hardware samples.">
<polygon fill="white" stroke="black" points="8,-0.5 8,-19.5 152,-19.5 152,-0.5 8,-0.5"/>
<text text-anchor="middle" x="80" y="-7.5" font-family="Helvetica,sans-Serif" font-size="10.00">hws::nvml_clock_samples</text>
</a>
</g>
</g>
<!-- Node8&#45;&gt;Node1 -->
<g id="edge7" class="edge">
<title>Node8&#45;&gt;Node1</title>
<path fill="none" stroke="#9a32cd" stroke-dasharray="5,2" d="M162.33,-15.37C203.79,-20.86 253.8,-31.9 294,-54 329.04,-73.27 358.87,-110.7 373.79,-131.73"/>
<polygon fill="#9a32cd" stroke="#9a32cd" points="162.62,-11.88 152.26,-14.12 161.75,-18.83 162.62,-11.88"/>
<text text-anchor="middle" x="236" y="-57" font-family="Helvetica,sans-Serif" font-size="10.00"> clock_samples_</text>
</g>
</g>
</svg>
