<?xml version="1.0" encoding="UTF-8" standalone="no"?>
<!DOCTYPE svg PUBLIC "-//W3C//DTD SVG 1.1//EN"
 "http://www.w3.org/Graphics/SVG/1.1/DTD/svg11.dtd">
<!-- Generated by graphviz version 2.43.0 (0)
 -->
<!-- Title: hws::gpu_intel_hardware_sampler Pages: 1 -->
<svg width="456pt" height="316pt"
 viewBox="0.00 0.00 456.00 315.50" xmlns="http://www.w3.org/2000/svg" xmlns:xlink="http://www.w3.org/1999/xlink">
<g id="graph0" class="graph" transform="scale(1 1) rotate(0) translate(4 311.5)">
<title>hws::gpu_intel_hardware_sampler</title>
<!-- Node1 -->
<g id="Node000001" class="node">
<title>Node1</title>
<g id="a_Node000001"><a xlink:title="A hardware sampler for Intel GPUs.">
<polygon fill="#999999" stroke="#666666" points="448,-174 310,-174 310,-144 448,-144 448,-174"/>
<text text-anchor="start" x="318" y="-162" font-family="Helvetica,sans-Serif" font-size="10.00">hws::gpu_intel_hardware</text>
<text text-anchor="middle" x="379" y="-151" font-family="Helvetica,sans-Serif" font-size="10.00">_sampler</text>
</a>
</g>
</g>
<!-- Node2 -->
<g id="Node000002" class="node">
<title>Node2</title>
<g id="a_Node000002"><a xlink:href="classhws_1_1hardware__sampler.html" target="_top" xlink:title="The base class for all specialized hardware samplers.">
<polygon fill="white" stroke="#666666" points="145.5,-307.5 12.5,-307.5 12.5,-288.5 145.5,-288.5 145.5,-307.5"/>
<text text-anchor="middle" x="79" y="-295.5" font-family="Helvetica,sans-Serif" font-size="10.00">hws::hardware_sampler</text>
</a>
</g>
</g>
<!-- Node2&#45;&gt;Node1 -->
<g id="edge1_Node000001_Node000002" class="edge">
<title>Node2&#45;&gt;Node1</title>
<g id="a_edge1_Node000001_Node000002"><a xlink:title=" ">
<path fill="none" stroke="#63b8ff" d="M155.81,-293.29C198.16,-287.95 250.57,-276.69 292,-253 326.37,-233.34 354.72,-195.22 368.67,-174.06"/>
<polygon fill="#63b8ff" stroke="#63b8ff" points="155.36,-289.82 145.83,-294.46 156.17,-296.77 155.36,-289.82"/>
</a>
</g>
</g>
<!-- Node3 -->
<g id="Node000003" class="node">
<title>Node3</title>
<g id="a_Node000003"><a xlink:href="classhws_1_1detail_1_1level__zero__device__handle.html" target="_top" xlink:title="PImpl class to hide the ze_driver_handle_t and ze_device_handle_t handles from the public interface (...">
<polygon fill="white" stroke="#666666" points="138.5,-270 19.5,-270 19.5,-240 138.5,-240 138.5,-270"/>
<text text-anchor="start" x="27.5" y="-258" font-family="Helvetica,sans-Serif" font-size="10.00">hws::detail::level</text>
<text text-anchor="middle" x="79" y="-247" font-family="Helvetica,sans-Serif" font-size="10.00">_zero_device_handle</text>
</a>
</g>
</g>
<!-- Node3&#45;&gt;Node1 -->
<g id="edge2_Node000001_Node000003" class="edge">
<title>Node3&#45;&gt;Node1</title>
<g id="a_edge2_Node000001_Node000003"><a xlink:title=" ">
<path fill="none" stroke="#9a32cd" stroke-dasharray="5,2" d="M148.81,-244.57C191.02,-236.93 245.67,-224.75 292,-207 314.51,-198.37 338.32,-184.69 355.16,-174.13"/>
<polygon fill="#9a32cd" stroke="#9a32cd" points="148.15,-241.14 138.91,-246.33 149.37,-248.03 148.15,-241.14"/>
</a>
</g>
<text text-anchor="middle" x="234" y="-241" font-family="Helvetica,sans-Serif" font-size="10.00" fill="grey"> device_</text>
</g>
<!-- Node4 -->
<g id="Node000004" class="node">
<title>Node4</title>
<g id="a_Node000004"><a xlink:href="classhws_1_1level__zero__general__samples.html" target="_top" xlink:title="Wrapper class for all general Level Zero hardware samples.">
<polygon fill="white" stroke="#666666" points="146,-222 12,-222 12,-192 146,-192 146,-222"/>
<text text-anchor="start" x="20" y="-210" font-family="Helvetica,sans-Serif" font-size="10.00">hws::level_zero_general</text>
<text text-anchor="middle" x="79" y="-199" font-family="Helvetica,sans-Serif" font-size="10.00">_samples</text>
</a>
</g>
</g>
<!-- Node4&#45;&gt;Node1 -->
<g id="edge3_Node000001_Node000004" class="edge">
<title>Node4&#45;&gt;Node1</title>
<g id="a_edge3_Node000001_Node000004"><a xlink:title=" ">
<path fill="none" stroke="#9a32cd" stroke-dasharray="5,2" d="M156.45,-195.45C196.79,-189.26 247.11,-181.41 292,-174 297.83,-173.04 303.88,-172.02 309.95,-170.99"/>
<polygon fill="#9a32cd" stroke="#9a32cd" points="155.77,-192.01 146.41,-196.98 156.83,-198.93 155.77,-192.01"/>
</a>
</g>
<text text-anchor="middle" x="234" y="-195" font-family="Helvetica,sans-Serif" font-size="10.00" fill="grey"> general_samples_</text>
</g>
<!-- Node5 -->
<g id="Node000005" class="node">
<title>Node5</title>
<g id="a_Node000005"><a xlink:href="classhws_1_1level__zero__clock__samples.html" target="_top" xlink:title="Wrapper class for all clock related Level Zero hardware samples.">
<polygon fill="white" stroke="#666666" points="140.5,-174 17.5,-174 17.5,-144 140.5,-144 140.5,-174"/>
<text text-anchor="start" x="25.5" y="-162" font-family="Helvetica,sans-Serif" font-size="10.00">hws::level_zero_clock</text>
<text text-anchor="middle" x="79" y="-151" font-family="Helvetica,sans-Serif" font-size="10.00">_samples</text>
</a>
</g>
</g>
<!-- Node5&#45;&gt;Node1 -->
<g id="edge4_Node000001_Node000005" class="edge">
<title>Node5&#45;&gt;Node1</title>
<g id="a_edge4_Node000001_Node000005"><a xlink:title=" ">
<path fill="none" stroke="#9a32cd" stroke-dasharray="5,2" d="M150.7,-159C198.86,-159 262.27,-159 309.87,-159"/>
<polygon fill="#9a32cd" stroke="#9a32cd" points="150.66,-155.5 140.66,-159 150.66,-162.5 150.66,-155.5"/>
</a>
</g>
<text text-anchor="middle" x="234" y="-162" font-family="Helvetica,sans-Serif" font-size="10.00" fill="grey"> clock_samples_</text>
</g>
<!-- Node6 -->
<g id="Node000006" class="node">
<title>Node6</title>
<g id="a_Node000006"><a xlink:href="classhws_1_1level__zero__power__samples.html" target="_top" xlink:title="Wrapper class for all power related Level Zero hardware samples.">
<polygon fill="white" stroke="#666666" points="143,-126 15,-126 15,-96 143,-96 143,-126"/>
<text text-anchor="start" x="23" y="-114" font-family="Helvetica,sans-Serif" font-size="10.00">hws::level_zero_power</text>
<text text-anchor="middle" x="79" y="-103" font-family="Helvetica,sans-Serif" font-size="10.00">_samples</text>
</a>
</g>
</g>
<!-- Node6&#45;&gt;Node1 -->
<g id="edge5_Node000001_Node000006" class="edge">
<title>Node6&#45;&gt;Node1</title>
<g id="a_edge5_Node000001_Node000006"><a xlink:title=" ">
<path fill="none" stroke="#9a32cd" stroke-dasharray="5,2" d="M153.27,-122.07C194.13,-128.33 245.92,-136.4 292,-144 297.83,-144.96 303.88,-145.98 309.95,-147.01"/>
<polygon fill="#9a32cd" stroke="#9a32cd" points="153.54,-118.57 143.13,-120.52 152.48,-125.49 153.54,-118.57"/>
</a>
</g>
<text text-anchor="middle" x="234" y="-147" font-family="Helvetica,sans-Serif" font-size="10.00" fill="grey"> power_samples_</text>
</g>
<!-- Node7 -->
<g id="Node000007" class="node">
<title>Node7</title>
<g id="a_Node000007"><a xlink:href="classhws_1_1level__zero__memory__samples.html" target="_top" xlink:title="Wrapper class for all memory related Level Zero hardware samples.">
<polygon fill="white" stroke="#666666" points="148.5,-78 9.5,-78 9.5,-48 148.5,-48 148.5,-78"/>
<text text-anchor="start" x="17.5" y="-66" font-family="Helvetica,sans-Serif" font-size="10.00">hws::level_zero_memory</text>
<text text-anchor="middle" x="79" y="-55" font-family="Helvetica,sans-Serif" font-size="10.00">_samples</text>
</a>
</g>
</g>
<!-- Node7&#45;&gt;Node1 -->
<g id="edge6_Node000001_Node000007" class="edge">
<title>Node7&#45;&gt;Node1</title>
<g id="a_edge6_Node000001_Node000007"><a xlink:title=" ">
<path fill="none" stroke="#9a32cd" stroke-dasharray="5,2" d="M158.69,-74.64C199.35,-82.1 249.27,-93.52 292,-110 314.93,-118.84 339.08,-133.09 355.93,-143.95"/>
<polygon fill="#9a32cd" stroke="#9a32cd" points="159.29,-71.2 148.83,-72.88 158.06,-78.09 159.29,-71.2"/>
</a>
</g>
<text text-anchor="middle" x="234" y="-113" font-family="Helvetica,sans-Serif" font-size="10.00" fill="grey"> memory_samples_</text>
</g>
<!-- Node8 -->
<g id="Node000008" class="node">
<title>Node8</title>
<g id="a_Node000008"><a xlink:href="classhws_1_1level__zero__temperature__samples.html" target="_top" xlink:title="Wrapper class for all temperature related Level Zero hardware samples.">
<polygon fill="white" stroke="#666666" points="158,-30 0,-30 0,0 158,0 158,-30"/>
<text text-anchor="start" x="8" y="-18" font-family="Helvetica,sans-Serif" font-size="10.00">hws::level_zero_temperature</text>
<text text-anchor="middle" x="79" y="-7" font-family="Helvetica,sans-Serif" font-size="10.00">_samples</text>
</a>
</g>
</g>
<!-- Node8&#45;&gt;Node1 -->
<g id="edge7_Node000001_Node000008" class="edge">
<title>Node8&#45;&gt;Node1</title>
<g id="a_edge7_Node000001_Node000008"><a xlink:title=" ">
<path fill="none" stroke="#9a32cd" stroke-dasharray="5,2" d="M168.04,-22.63C208,-29.08 254.59,-41.01 292,-63 326.53,-83.3 354.82,-122.15 368.71,-143.68"/>
<polygon fill="#9a32cd" stroke="#9a32cd" points="168.45,-19.15 158.03,-21.1 167.39,-26.07 168.45,-19.15"/>
</a>
</g>
<text text-anchor="middle" x="234" y="-66" font-family="Helvetica,sans-Serif" font-size="10.00" fill="grey"> temperature_samples_</text>
</g>
</g>
</svg>
