<?xml version="1.0" encoding="UTF-8" standalone="no"?>
<!DOCTYPE svg PUBLIC "-//W3C//DTD SVG 1.1//EN"
 "http://www.w3.org/Graphics/SVG/1.1/DTD/svg11.dtd">
<!-- Generated by graphviz version 2.43.0 (0)
 -->
<!-- Title: hws::cpu_hardware_sampler Pages: 1 -->
<svg width="467pt" height="310pt"
 viewBox="0.00 0.00 467.00 309.50" xmlns="http://www.w3.org/2000/svg" xmlns:xlink="http://www.w3.org/1999/xlink">

<svg id="main" version="1.1" xmlns="http://www.w3.org/2000/svg" xmlns:xlink="http://www.w3.org/1999/xlink" xml:space="preserve" onload="init(evt)">
<style type="text/css"><![CDATA[
.node, .edge {opacity: 0.7;}
.node.selected, .edge.selected {opacity: 1;}
.edge:hover path { stroke: red; }
.edge:hover polygon { stroke: red; fill: red; }
]]></style>
<script type="application/ecmascript" xlink:href="svg.min.js"/>
<svg id="graph" class="graph">
<g id="graph0" class="graph" transform="scale(1 1) rotate(0) translate(4 305.5)">
<title>hws::cpu_hardware_sampler</title>
<!-- Node1 -->
<g id="Node000001" class="node">
<title>Node1</title>
<g id="a_Node000001"><a xlink:title="A hardware sampler for the CPU.">
<polygon fill="#999999" stroke="#666666" points="459,-171.5 304,-171.5 304,-152.5 459,-152.5 459,-171.5"/>
<text text-anchor="middle" x="381.5" y="-159.5" font-family="Helvetica,sans-Serif" font-size="10.00">hws::cpu_hardware_sampler</text>
</a>
</g>
</g>
<!-- Node2 -->
<g id="Node000002" class="node">
<title>Node2</title>
<g id="a_Node000002"><a xlink:href="classhws_1_1hardware__sampler.html" target="_top" xlink:title="The base class for all specialized hardware samplers.">
<polygon fill="white" stroke="#666666" points="142.5,-301.5 9.5,-301.5 9.5,-282.5 142.5,-282.5 142.5,-301.5"/>
<text text-anchor="middle" x="76" y="-289.5" font-family="Helvetica,sans-Serif" font-size="10.00">hws::hardware_sampler</text>
</a>
</g>
</g>
<!-- Node2&#45;&gt;Node1 -->
<g id="edge1_Node000001_Node000002" class="edge">
<title>Node2&#45;&gt;Node1</title>
<g id="a_edge1_Node000001_Node000002"><a xlink:title=" ">
<path fill="none" stroke="#63b8ff" d="M152.58,-293.07C194.01,-290.81 245.11,-283.19 286,-262 327.99,-240.24 361.56,-192.32 374.61,-171.72"/>
<polygon fill="#63b8ff" stroke="#63b8ff" points="152.37,-289.58 142.54,-293.52 152.69,-296.57 152.37,-289.58"/>
</a>
</g>
</g>
<!-- Node3 -->
<g id="Node000003" class="node">
<title>Node3</title>
<g id="a_Node000003"><a xlink:href="classhws_1_1cpu__general__samples.html" target="_top" xlink:title="Wrapper class for all general CPU hardware samples.">
<polygon fill="white" stroke="#666666" points="150,-264.5 2,-264.5 2,-245.5 150,-245.5 150,-264.5"/>
<text text-anchor="middle" x="76" y="-252.5" font-family="Helvetica,sans-Serif" font-size="10.00">hws::cpu_general_samples</text>
</a>
</g>
</g>
<!-- Node3&#45;&gt;Node1 -->
<g id="edge2_Node000001_Node000003" class="edge">
<title>Node3&#45;&gt;Node1</title>
<g id="a_edge2_Node000001_Node000003"><a xlink:title=" ">
<path fill="none" stroke="#9a32cd" stroke-dasharray="5,2" d="M160.73,-249.66C199.76,-245.2 246.25,-237.01 286,-222 318.54,-209.71 351.78,-185.27 368.83,-171.68"/>
<polygon fill="#9a32cd" stroke="#9a32cd" points="160.02,-246.21 150.45,-250.77 160.77,-253.17 160.02,-246.21"/>
</a>
</g>
<text text-anchor="middle" x="228" y="-250" font-family="Helvetica,sans-Serif" font-size="10.00" fill="grey"> general_samples_</text>
</g>
<!-- Node4 -->
<g id="Node000004" class="node">
<title>Node4</title>
<g id="a_Node000004"><a xlink:href="classhws_1_1cpu__clock__samples.html" target="_top" xlink:title="Wrapper class for all clock related CPU hardware samples.">
<polygon fill="white" stroke="#666666" points="144.5,-227.5 7.5,-227.5 7.5,-208.5 144.5,-208.5 144.5,-227.5"/>
<text text-anchor="middle" x="76" y="-215.5" font-family="Helvetica,sans-Serif" font-size="10.00">hws::cpu_clock_samples</text>
</a>
</g>
</g>
<!-- Node4&#45;&gt;Node1 -->
<g id="edge3_Node000001_Node000004" class="edge">
<title>Node4&#45;&gt;Node1</title>
<g id="a_edge3_Node000001_Node000004"><a xlink:title=" ">
<path fill="none" stroke="#9a32cd" stroke-dasharray="5,2" d="M154.82,-209.84C194.34,-205.03 242.97,-198.09 286,-189 308.04,-184.35 332.47,-177.31 350.98,-171.59"/>
<polygon fill="#9a32cd" stroke="#9a32cd" points="154.23,-206.38 144.72,-211.05 155.06,-213.33 154.23,-206.38"/>
</a>
</g>
<text text-anchor="middle" x="228" y="-210" font-family="Helvetica,sans-Serif" font-size="10.00" fill="grey"> clock_samples_</text>
</g>
<!-- Node5 -->
<g id="Node000005" class="node">
<title>Node5</title>
<g id="a_Node000005"><a xlink:href="classhws_1_1cpu__power__samples.html" target="_top" xlink:title="Wrapper class for all power related CPU hardware samples.">
<polygon fill="white" stroke="#666666" points="146.5,-190.5 5.5,-190.5 5.5,-171.5 146.5,-171.5 146.5,-190.5"/>
<text text-anchor="middle" x="76" y="-178.5" font-family="Helvetica,sans-Serif" font-size="10.00">hws::cpu_power_samples</text>
</a>
</g>
</g>
<!-- Node5&#45;&gt;Node1 -->
<g id="edge4_Node000001_Node000005" class="edge">
<title>Node5&#45;&gt;Node1</title>
<g id="a_edge4_Node000001_Node000005"><a xlink:title=" ">
<path fill="none" stroke="#9a32cd" stroke-dasharray="5,2" d="M156.73,-176.01C202.17,-173.16 258.81,-169.62 303.74,-166.81"/>
<polygon fill="#9a32cd" stroke="#9a32cd" points="156.39,-172.52 146.63,-176.64 156.83,-179.51 156.39,-172.52"/>
</a>
</g>
<text text-anchor="middle" x="228" y="-177" font-family="Helvetica,sans-Serif" font-size="10.00" fill="grey"> power_samples_</text>
</g>
<!-- Node6 -->
<g id="Node000006" class="node">
<title>Node6</title>
<g id="a_Node000006"><a xlink:href="classhws_1_1cpu__memory__samples.html" target="_top" xlink:title="Wrapper class for all memory related CPU hardware samples.">
<polygon fill="white" stroke="#666666" points="152,-153.5 0,-153.5 0,-134.5 152,-134.5 152,-153.5"/>
<text text-anchor="middle" x="76" y="-141.5" font-family="Helvetica,sans-Serif" font-size="10.00">hws::cpu_memory_samples</text>
</a>
</g>
</g>
<!-- Node6&#45;&gt;Node1 -->
<g id="edge5_Node000001_Node000006" class="edge">
<title>Node6&#45;&gt;Node1</title>
<g id="a_edge5_Node000001_Node000006"><a xlink:title=" ">
<path fill="none" stroke="#9a32cd" stroke-dasharray="5,2" d="M162.57,-143.17C200.45,-143.44 245.5,-144.63 286,-148 298.48,-149.04 311.82,-150.68 324.42,-152.49"/>
<polygon fill="#9a32cd" stroke="#9a32cd" points="162.1,-139.67 152.09,-143.12 162.07,-146.67 162.1,-139.67"/>
</a>
</g>
<text text-anchor="middle" x="228" y="-151" font-family="Helvetica,sans-Serif" font-size="10.00" fill="grey"> memory_samples_</text>
</g>
<!-- Node7 -->
<g id="Node000007" class="node">
<title>Node7</title>
<g id="a_Node000007"><a xlink:href="classhws_1_1cpu__temperature__samples.html" target="_top" xlink:title="Wrapper class for all temperature related CPU hardware samples.">
<polygon fill="white" stroke="#666666" points="138.5,-116 13.5,-116 13.5,-86 138.5,-86 138.5,-116"/>
<text text-anchor="start" x="21.5" y="-104" font-family="Helvetica,sans-Serif" font-size="10.00">hws::cpu_temperature</text>
<text text-anchor="middle" x="76" y="-93" font-family="Helvetica,sans-Serif" font-size="10.00">_samples</text>
</a>
</g>
</g>
<!-- Node7&#45;&gt;Node1 -->
<g id="edge6_Node000001_Node000007" class="edge">
<title>Node7&#45;&gt;Node1</title>
<g id="a_edge6_Node000001_Node000007"><a xlink:title=" ">
<path fill="none" stroke="#9a32cd" stroke-dasharray="5,2" d="M149,-106.42C189.62,-110.44 241.08,-117.15 286,-128 311.42,-134.14 339.5,-144.76 358.39,-152.5"/>
<polygon fill="#9a32cd" stroke="#9a32cd" points="149.2,-102.92 138.91,-105.45 148.53,-109.89 149.2,-102.92"/>
</a>
</g>
<text text-anchor="middle" x="228" y="-131" font-family="Helvetica,sans-Serif" font-size="10.00" fill="grey"> temperature_samples_</text>
</g>
<!-- Node8 -->
<g id="Node000008" class="node">
<title>Node8</title>
<g id="a_Node000008"><a xlink:href="classhws_1_1cpu__gfx__samples.html" target="_top" xlink:title="Wrapper class for all gfx (iGPU) related CPU hardware samples.">
<polygon fill="white" stroke="#666666" points="139.5,-67.5 12.5,-67.5 12.5,-48.5 139.5,-48.5 139.5,-67.5"/>
<text text-anchor="middle" x="76" y="-55.5" font-family="Helvetica,sans-Serif" font-size="10.00">hws::cpu_gfx_samples</text>
</a>
</g>
</g>
<!-- Node8&#45;&gt;Node1 -->
<g id="edge7_Node000001_Node000008" class="edge">
<title>Node8&#45;&gt;Node1</title>
<g id="a_edge7_Node000001_Node000008"><a xlink:title=" ">
<path fill="none" stroke="#9a32cd" stroke-dasharray="5,2" d="M149.89,-61.9C191.14,-66.12 242.93,-74.87 286,-93 320.64,-107.58 354.56,-137.12 370.72,-152.39"/>
<polygon fill="#9a32cd" stroke="#9a32cd" points="150.2,-58.41 139.92,-60.94 149.54,-65.38 150.2,-58.41"/>
</a>
</g>
<text text-anchor="middle" x="228" y="-96" font-family="Helvetica,sans-Serif" font-size="10.00" fill="grey"> gfx_samples_</text>
</g>
<!-- Node9 -->
<g id="Node000009" class="node">
<title>Node9</title>
<g id="a_Node000009"><a xlink:href="classhws_1_1cpu__idle__states__samples.html" target="_top" xlink:title="Wrapper class for all idle state related CPU hardware samples.">
<polygon fill="white" stroke="#666666" points="135,-30 17,-30 17,0 135,0 135,-30"/>
<text text-anchor="start" x="25" y="-18" font-family="Helvetica,sans-Serif" font-size="10.00">hws::cpu_idle_states</text>
<text text-anchor="middle" x="76" y="-7" font-family="Helvetica,sans-Serif" font-size="10.00">_samples</text>
</a>
</g>
</g>
<!-- Node9&#45;&gt;Node1 -->
<g id="edge8_Node000001_Node000009" class="edge">
<title>Node9&#45;&gt;Node1</title>
<g id="a_edge8_Node000001_Node000009"><a xlink:title=" ">
<path fill="none" stroke="#9a32cd" stroke-dasharray="5,2" d="M145.21,-14.2C188.13,-16.47 243.27,-24.66 286,-49 330.89,-74.57 363.77,-130.14 375.65,-152.45"/>
<polygon fill="#9a32cd" stroke="#9a32cd" points="145.28,-10.7 135.14,-13.77 144.98,-17.7 145.28,-10.7"/>
</a>
</g>
<text text-anchor="middle" x="228" y="-52" font-family="Helvetica,sans-Serif" font-size="10.00" fill="grey"> idle_state_samples_</text>
</g>
</g>
</svg>
</svg>

<style type='text/css'>
<![CDATA[
[data-mouse-over-selected='false'] { opacity: 0.7; }
[data-mouse-over-selected='true']  { opacity: 1.0; }
]]>
</style>
<script type="application/ecmascript"><![CDATA[
document.addEventListener('DOMContentLoaded', (event) => {
  highlightEdges();
  highlightAdjacentNodes();
});
]]></script>
</svg>
