<?xml version="1.0" encoding="UTF-8" standalone="no"?>
<!DOCTYPE svg PUBLIC "-//W3C//DTD SVG 1.1//EN"
 "http://www.w3.org/Graphics/SVG/1.1/DTD/svg11.dtd">
<!-- Generated by graphviz version 2.43.0 (0)
 -->
<!-- Title: include/hws Pages: 1 -->
<svg width="430pt" height="111pt"
 viewBox="0.00 0.00 430.00 111.00" xmlns="http://www.w3.org/2000/svg" xmlns:xlink="http://www.w3.org/1999/xlink">
<g id="graph0" class="graph" transform="scale(1 1) rotate(0) translate(4 107)">
<title>include/hws</title>
<polygon fill="white" stroke="transparent" points="-4,4 -4,-107 426,-107 426,4 -4,4"/>
<g id="clust1" class="cluster">
<title>clusterdir_d44c64559bbebec7f509842c48db8b23</title>
<g id="a_clust1"><a xlink:href="dir_d44c64559bbebec7f509842c48db8b23.html" target="_top" xlink:title="include">
<polygon fill="#ddddee" stroke="black" points="8,-8 8,-95 414,-95 414,-8 8,-8"/>
<text text-anchor="middle" x="211" y="-83" font-family="Helvetica,sans-Serif" font-size="10.00">include</text>
</a>
</g>
</g>
<g id="clust2" class="cluster">
<title>clusterdir_2676a5d4f4f242c96d750b8a377861e6</title>
<g id="a_clust2"><a xlink:href="dir_2676a5d4f4f242c96d750b8a377861e6.html" target="_top">
<polygon fill="#eeeeff" stroke="black" points="16,-16 16,-68 406,-68 406,-16 16,-16"/>
</a>
</g>
</g>
<!-- dir_2676a5d4f4f242c96d750b8a377861e6 -->
<g id="node1" class="node">
<title>dir_2676a5d4f4f242c96d750b8a377861e6</title>
<text text-anchor="middle" x="371" y="-39.5" font-family="Helvetica,sans-Serif" font-size="10.00">hws</text>
</g>
<!-- dir_fcd266c0ee97acdf204667811fbe2ae1 -->
<g id="node2" class="node">
<title>dir_fcd266c0ee97acdf204667811fbe2ae1</title>
<g id="a_node2"><a xlink:href="dir_fcd266c0ee97acdf204667811fbe2ae1.html" target="_top" xlink:title="cpu">
<polygon fill="white" stroke="black" points="326,-60 272,-60 272,-24 326,-24 326,-60"/>
<text text-anchor="middle" x="299" y="-39.5" font-family="Helvetica,sans-Serif" font-size="10.00">cpu</text>
</a>
</g>
</g>
<!-- dir_5890c392c7f35b4df8db4e1fd7856a62 -->
<g id="node3" class="node">
<title>dir_5890c392c7f35b4df8db4e1fd7856a62</title>
<g id="a_node3"><a xlink:href="dir_5890c392c7f35b4df8db4e1fd7856a62.html" target="_top" xlink:title="gpu_amd">
<polygon fill="white" stroke="black" points="254,-60 192,-60 192,-24 254,-24 254,-60"/>
<text text-anchor="middle" x="223" y="-39.5" font-family="Helvetica,sans-Serif" font-size="10.00">gpu_amd</text>
</a>
</g>
</g>
<!-- dir_c7a8807e68f4c96f76c5129da8c7aa33 -->
<g id="node4" class="node">
<title>dir_c7a8807e68f4c96f76c5129da8c7aa33</title>
<g id="a_node4"><a xlink:href="dir_c7a8807e68f4c96f76c5129da8c7aa33.html" target="_top" xlink:title="gpu_intel">
<polygon fill="white" stroke="black" points="174,-60 112,-60 112,-24 174,-24 174,-60"/>
<text text-anchor="middle" x="143" y="-39.5" font-family="Helvetica,sans-Serif" font-size="10.00">gpu_intel</text>
</a>
</g>
</g>
<!-- dir_360cb68f8b0544ab8264992b51ad3ffb -->
<g id="node5" class="node">
<title>dir_360cb68f8b0544ab8264992b51ad3ffb</title>
<g id="a_node5"><a xlink:href="dir_360cb68f8b0544ab8264992b51ad3ffb.html" target="_top" xlink:title="gpu_nvidia">
<polygon fill="white" stroke="black" points="94,-60 24,-60 24,-24 94,-24 94,-60"/>
<text text-anchor="middle" x="59" y="-39.5" font-family="Helvetica,sans-Serif" font-size="10.00">gpu_nvidia</text>
</a>
</g>
</g>
</g>
</svg>
