<?xml version="1.0" encoding="UTF-8" standalone="no"?>
<!DOCTYPE svg PUBLIC "-//W3C//DTD SVG 1.1//EN"
 "http://www.w3.org/Graphics/SVG/1.1/DTD/svg11.dtd">
<!-- Generated by graphviz version 2.43.0 (0)
 -->
<!-- Title: include/hws/event.hpp Pages: 1 -->
<!--zoomable 218 -->
<svg id="main" version="1.1" xmlns="http://www.w3.org/2000/svg" xmlns:xlink="http://www.w3.org/1999/xlink" xml:space="preserve" onload="init(evt)">
<style type="text/css"><![CDATA[
.edge:hover path { stroke: red; }
.edge:hover polygon { stroke: red; fill: red; }
]]></style>
<script type="text/javascript"><![CDATA[
var edges = document.getElementsByTagName('g');
if (edges && edges.length) {
  for (var i=0;i<edges.length;i++) {
    if (edges[i].id.substr(0,4)=='edge') {
      edges[i].setAttribute('class','edge');
    }
  }
}
]]></script>
        <defs>
                <circle id="rim" cx="0" cy="0" r="7"/>
                <circle id="rim2" cx="0" cy="0" r="3.5"/>
                <g id="zoomPlus">
                        <use xlink:href="#rim" fill="#404040">
                                <set attributeName="fill" to="#808080" begin="zoomplus.mouseover" end="zoomplus.mouseout"/>
                        </use>
                        <path d="M-4,0h8M0,-4v8" fill="none" stroke="white" stroke-width="1.5" pointer-events="none"/>
                </g>
                <g id="zoomMin">
                        <use xlink:href="#rim" fill="#404040">
                                <set attributeName="fill" to="#808080" begin="zoomminus.mouseover" end="zoomminus.mouseout"/>
                        </use>
                        <path d="M-4,0h8" fill="none" stroke="white" stroke-width="1.5" pointer-events="none"/>
                </g>
                <g id="dirArrow">
                        <path fill="none" stroke="white" stroke-width="1.5" d="M0,-3.0v7 M-2.5,-0.5L0,-3.0L2.5,-0.5"/>
                </g>
               <g id="resetDef">
                       <use xlink:href="#rim2" fill="#404040">
                               <set attributeName="fill" to="#808080" begin="reset.mouseover" end="reset.mouseout"/>
                       </use>
               </g>
        </defs>

<script type="text/javascript">
var viewWidth = 802;
var viewHeight = 218;
var sectionId = 'dynsection-0';
</script>
<script xlink:href="svgpan.js"/>
<svg id="graph" class="graph">
<g id="viewport">
<title>include/hws/event.hpp</title>
<polygon fill="white" stroke="transparent" points="-4,4 -4,-214 797.92,-214 797.92,4 -4,4"/>
<!-- Node1 -->
<g id="node1" class="node">
<title>Node1</title>
<g id="a_node1"><a xlink:title="Defines an event type.">
<polygon fill="#bfbfbf" stroke="black" points="17.42,-190.5 17.42,-209.5 143.42,-209.5 143.42,-190.5 17.42,-190.5"/>
<text text-anchor="middle" x="80.42" y="-197.5" font-family="Helvetica,sans-Serif" font-size="10.00">include/hws/event.hpp</text>
</a>
</g>
</g>
<!-- Node2 -->
<g id="node2" class="node">
<title>Node2</title>
<g id="a_node2"><a xlink:href="core_8hpp.html" target="_top" xlink:title="Core header containing all other necessary other headers.">
<polygon fill="white" stroke="black" points="20.92,-0.5 20.92,-19.5 139.92,-19.5 139.92,-0.5 20.92,-0.5"/>
<text text-anchor="middle" x="80.42" y="-7.5" font-family="Helvetica,sans-Serif" font-size="10.00">include/hws/core.hpp</text>
</a>
</g>
</g>
<!-- Node1&#45;&gt;Node2 -->
<g id="edge1" class="edge">
<title>Node1&#45;&gt;Node2</title>
<path fill="none" stroke="midnightblue" d="M64.88,-183C46.31,-162.65 16.25,-125.5 4.42,-87 0.38,-73.83 -2.4,-67.97 4.42,-56 14.67,-38.02 35.25,-26.49 52.41,-19.6"/>
<polygon fill="midnightblue" stroke="midnightblue" points="62.44,-185.51 71.83,-190.41 67.54,-180.72 62.44,-185.51"/>
</g>
<!-- Node3 -->
<g id="node3" class="node">
<title>Node3</title>
<g id="a_node3"><a xlink:href="system__hardware__sampler_8hpp.html" target="_top" xlink:title="Defines a hardware sampler for the whole system, i.e., automatically creates CPU and GPU hardware sam...">
<polygon fill="white" stroke="black" points="13.92,-56.5 13.92,-86.5 146.92,-86.5 146.92,-56.5 13.92,-56.5"/>
<text text-anchor="start" x="21.92" y="-74.5" font-family="Helvetica,sans-Serif" font-size="10.00">include/hws/system</text>
<text text-anchor="middle" x="80.42" y="-63.5" font-family="Helvetica,sans-Serif" font-size="10.00">_hardware_sampler.hpp</text>
</a>
</g>
</g>
<!-- Node1&#45;&gt;Node3 -->
<g id="edge2" class="edge">
<title>Node1&#45;&gt;Node3</title>
<path fill="none" stroke="midnightblue" d="M80.42,-180.11C80.42,-154.63 80.42,-109.81 80.42,-86.89"/>
<polygon fill="midnightblue" stroke="midnightblue" points="76.92,-180.31 80.42,-190.31 83.92,-180.31 76.92,-180.31"/>
</g>
<!-- Node4 -->
<g id="node4" class="node">
<title>Node4</title>
<g id="a_node4"><a xlink:href="hardware__sampler_8hpp.html" target="_top" xlink:title="Defines the base class for all hardware samplers.">
<polygon fill="white" stroke="black" points="213.92,-123.5 213.92,-153.5 336.92,-153.5 336.92,-123.5 213.92,-123.5"/>
<text text-anchor="start" x="221.92" y="-141.5" font-family="Helvetica,sans-Serif" font-size="10.00">include/hws/hardware</text>
<text text-anchor="middle" x="275.42" y="-130.5" font-family="Helvetica,sans-Serif" font-size="10.00">_sampler.hpp</text>
</a>
</g>
</g>
<!-- Node1&#45;&gt;Node4 -->
<g id="edge4" class="edge">
<title>Node1&#45;&gt;Node4</title>
<path fill="none" stroke="midnightblue" d="M118.17,-187.48C149.96,-177.78 195.55,-163.87 229.47,-153.52"/>
<polygon fill="midnightblue" stroke="midnightblue" points="116.91,-184.21 108.36,-190.48 118.95,-190.9 116.91,-184.21"/>
</g>
<!-- Node3&#45;&gt;Node2 -->
<g id="edge3" class="edge">
<title>Node3&#45;&gt;Node2</title>
<path fill="none" stroke="midnightblue" d="M80.42,-46.29C80.42,-36.86 80.42,-26.65 80.42,-19.66"/>
<polygon fill="midnightblue" stroke="midnightblue" points="76.92,-46.4 80.42,-56.4 83.92,-46.4 76.92,-46.4"/>
</g>
<!-- Node4&#45;&gt;Node2 -->
<g id="edge5" class="edge">
<title>Node4&#45;&gt;Node2</title>
<path fill="none" stroke="midnightblue" d="M242.34,-118.05C227.44,-108.99 209.78,-97.84 194.42,-87 176.33,-74.23 173.62,-68.61 155.42,-56 135.58,-42.25 111.45,-28.22 96.02,-19.56"/>
<polygon fill="midnightblue" stroke="midnightblue" points="240.84,-121.23 251.21,-123.39 244.45,-115.24 240.84,-121.23"/>
</g>
<!-- Node4&#45;&gt;Node3 -->
<g id="edge10" class="edge">
<title>Node4&#45;&gt;Node3</title>
<path fill="none" stroke="midnightblue" d="M223.61,-120.23C192.06,-109.71 152.28,-96.45 122.65,-86.58"/>
<polygon fill="midnightblue" stroke="midnightblue" points="222.52,-123.55 233.11,-123.4 224.73,-116.91 222.52,-123.55"/>
</g>
<!-- Node5 -->
<g id="node5" class="node">
<title>Node5</title>
<g id="a_node5"><a xlink:href="cpu_2hardware__sampler_8hpp.html" target="_top" xlink:title="Defines a hardware sampler for CPUs using the turbostat, lscpu, and free utilities (requires root).">
<polygon fill="white" stroke="black" points="203.92,-56.5 203.92,-86.5 346.92,-86.5 346.92,-56.5 203.92,-56.5"/>
<text text-anchor="start" x="211.92" y="-74.5" font-family="Helvetica,sans-Serif" font-size="10.00">include/hws/cpu/hardware</text>
<text text-anchor="middle" x="275.42" y="-63.5" font-family="Helvetica,sans-Serif" font-size="10.00">_sampler.hpp</text>
</a>
</g>
</g>
<!-- Node4&#45;&gt;Node5 -->
<g id="edge6" class="edge">
<title>Node4&#45;&gt;Node5</title>
<path fill="none" stroke="midnightblue" d="M275.42,-113.11C275.42,-104.15 275.42,-94.32 275.42,-86.58"/>
<polygon fill="midnightblue" stroke="midnightblue" points="271.92,-113.4 275.42,-123.4 278.92,-113.4 271.92,-113.4"/>
</g>
<!-- Node6 -->
<g id="node6" class="node">
<title>Node6</title>
<g id="a_node6"><a xlink:href="gpu__amd_2hardware__sampler_8hpp.html" target="_top" xlink:title="Defines a hardware sampler for AMD GPUs using AMD&#39;s ROCm SMI library.">
<polygon fill="white" stroke="black" points="364.92,-56.5 364.92,-86.5 495.92,-86.5 495.92,-56.5 364.92,-56.5"/>
<text text-anchor="start" x="372.92" y="-74.5" font-family="Helvetica,sans-Serif" font-size="10.00">include/hws/gpu_amd</text>
<text text-anchor="middle" x="430.42" y="-63.5" font-family="Helvetica,sans-Serif" font-size="10.00">/hardware_sampler.hpp</text>
</a>
</g>
</g>
<!-- Node4&#45;&gt;Node6 -->
<g id="edge7" class="edge">
<title>Node4&#45;&gt;Node6</title>
<path fill="none" stroke="midnightblue" d="M318.57,-119.41C343.31,-109.03 373.92,-96.2 396.86,-86.58"/>
<polygon fill="midnightblue" stroke="midnightblue" points="316.92,-116.3 309.06,-123.4 319.63,-122.76 316.92,-116.3"/>
</g>
<!-- Node7 -->
<g id="node7" class="node">
<title>Node7</title>
<g id="a_node7"><a xlink:href="gpu__intel_2hardware__sampler_8hpp.html" target="_top" xlink:title="Defines a hardware sampler for Intel GPUs using Intel&#39;s Level Zero.">
<polygon fill="white" stroke="black" points="513.92,-56.5 513.92,-86.5 644.92,-86.5 644.92,-56.5 513.92,-56.5"/>
<text text-anchor="start" x="521.92" y="-74.5" font-family="Helvetica,sans-Serif" font-size="10.00">include/hws/gpu_intel</text>
<text text-anchor="middle" x="579.42" y="-63.5" font-family="Helvetica,sans-Serif" font-size="10.00">/hardware_sampler.hpp</text>
</a>
</g>
</g>
<!-- Node4&#45;&gt;Node7 -->
<g id="edge8" class="edge">
<title>Node4&#45;&gt;Node7</title>
<path fill="none" stroke="midnightblue" d="M346.81,-122.24C397.34,-111.43 464.6,-97.05 513.79,-86.53"/>
<polygon fill="midnightblue" stroke="midnightblue" points="345.99,-118.83 336.94,-124.35 347.45,-125.68 345.99,-118.83"/>
</g>
<!-- Node8 -->
<g id="node8" class="node">
<title>Node8</title>
<g id="a_node8"><a xlink:href="gpu__nvidia_2hardware__sampler_8hpp.html" target="_top" xlink:title="Defines a hardware sampler for NVIDIA GPUs using NVIDIA&#39;s Management Library (NVML).">
<polygon fill="white" stroke="black" points="662.92,-56.5 662.92,-86.5 793.92,-86.5 793.92,-56.5 662.92,-56.5"/>
<text text-anchor="start" x="670.92" y="-74.5" font-family="Helvetica,sans-Serif" font-size="10.00">include/hws/gpu_nvidia</text>
<text text-anchor="middle" x="728.42" y="-63.5" font-family="Helvetica,sans-Serif" font-size="10.00">/hardware_sampler.hpp</text>
</a>
</g>
</g>
<!-- Node4&#45;&gt;Node8 -->
<g id="edge9" class="edge">
<title>Node4&#45;&gt;Node8</title>
<path fill="none" stroke="midnightblue" d="M346.96,-129.29C423.3,-120.22 547.7,-104.55 654.42,-87 657.14,-86.55 659.9,-86.08 662.69,-85.6"/>
<polygon fill="midnightblue" stroke="midnightblue" points="346.49,-125.82 336.97,-130.47 347.31,-132.77 346.49,-125.82"/>
</g>
</g>
</svg>
        <g id="navigator" transform="translate(0 0)" fill="#404254">
                <rect fill="#f2f5e9" fill-opacity="0.5" stroke="#606060" stroke-width=".5" x="0" y="0" width="60" height="60"/>
                <use id="zoomplus" xlink:href="#zoomPlus" x="17" y="9" onmousedown="handleZoom(evt,'in')"/>
                <use id="zoomminus" xlink:href="#zoomMin" x="42" y="9" onmousedown="handleZoom(evt,'out')"/>
                <use id="reset" xlink:href="#resetDef" x="30" y="36" onmousedown="handleReset()"/>
                <g id="arrowUp" xlink:href="#dirArrow" transform="translate(30 24)" onmousedown="handlePan(0,-1)">
                  <use xlink:href="#rim" fill="#404040">
                        <set attributeName="fill" to="#808080" begin="arrowUp.mouseover" end="arrowUp.mouseout"/>
                  </use>
                  <path fill="none" stroke="white" stroke-width="1.5" d="M0,-3.0v7 M-2.5,-0.5L0,-3.0L2.5,-0.5"/>
                </g>
                <g id="arrowRight" xlink:href="#dirArrow" transform="rotate(90) translate(36 -43)" onmousedown="handlePan(1,0)">
                  <use xlink:href="#rim" fill="#404040">
                        <set attributeName="fill" to="#808080" begin="arrowRight.mouseover" end="arrowRight.mouseout"/>
                  </use>
                  <path fill="none" stroke="white" stroke-width="1.5" d="M0,-3.0v7 M-2.5,-0.5L0,-3.0L2.5,-0.5"/>
                </g>
                <g id="arrowDown" xlink:href="#dirArrow" transform="rotate(180) translate(-30 -48)" onmousedown="handlePan(0,1)">
                  <use xlink:href="#rim" fill="#404040">
                        <set attributeName="fill" to="#808080" begin="arrowDown.mouseover" end="arrowDown.mouseout"/>
                  </use>
                  <path fill="none" stroke="white" stroke-width="1.5" d="M0,-3.0v7 M-2.5,-0.5L0,-3.0L2.5,-0.5"/>
                </g>
                <g id="arrowLeft" xlink:href="#dirArrow" transform="rotate(270) translate(-36 17)" onmousedown="handlePan(-1,0)">
                  <use xlink:href="#rim" fill="#404040">
                        <set attributeName="fill" to="#808080" begin="arrowLeft.mouseover" end="arrowLeft.mouseout"/>
                  </use>
                  <path fill="none" stroke="white" stroke-width="1.5" d="M0,-3.0v7 M-2.5,-0.5L0,-3.0L2.5,-0.5"/>
                </g>
        </g>
        <svg viewBox="0 0 15 15" width="100%" height="30px" preserveAspectRatio="xMaxYMin meet">
         <g id="arrow_out" transform="scale(0.3 0.3)">
          <a xlink:href="event_8hpp__dep__incl_org.svg" target="_base">
           <rect id="button" ry="5" rx="5" y="6" x="6" height="38" width="38"
                fill="#f2f5e9" fill-opacity="0.5" stroke="#606060" stroke-width="1.0"/>
           <path id="arrow"
             d="M 11.500037,31.436501 C 11.940474,20.09759 22.043105,11.32322 32.158766,21.979434 L 37.068811,17.246167 C 37.068811,17.246167 37.088388,32 37.088388,32 L 22.160133,31.978069 C 22.160133,31.978069 26.997745,27.140456 26.997745,27.140456 C 18.528582,18.264221 13.291696,25.230495 11.500037,31.436501 z"
             style="fill:#404040;"/>
          </a>
         </g>
        </svg>
</svg>
