<?xml version="1.0" encoding="UTF-8" standalone="no"?>
<!DOCTYPE svg PUBLIC "-//W3C//DTD SVG 1.1//EN"
 "http://www.w3.org/Graphics/SVG/1.1/DTD/svg11.dtd">
<!-- Generated by graphviz version 2.43.0 (0)
 -->
<!-- Title: include/hws/gpu_nvidia/utility.hpp Pages: 1 -->
<svg width="176pt" height="106pt"
 viewBox="0.00 0.00 176.00 106.00" xmlns="http://www.w3.org/2000/svg" xmlns:xlink="http://www.w3.org/1999/xlink">
<g id="graph0" class="graph" transform="scale(1 1) rotate(0) translate(4 102)">
<title>include/hws/gpu_nvidia/utility.hpp</title>
<polygon fill="white" stroke="transparent" points="-4,4 -4,-102 172,-102 172,4 -4,4"/>
<!-- Node1 -->
<g id="node1" class="node">
<title>Node1</title>
<g id="a_node1"><a xlink:title="Implements utility functionality for the NVIDIA GPU sampler.">
<polygon fill="#bfbfbf" stroke="black" points="18.5,-67.5 18.5,-97.5 149.5,-97.5 149.5,-67.5 18.5,-67.5"/>
<text text-anchor="start" x="26.5" y="-85.5" font-family="Helvetica,sans-Serif" font-size="10.00">include/hws/gpu_nvidia</text>
<text text-anchor="middle" x="84" y="-74.5" font-family="Helvetica,sans-Serif" font-size="10.00">/utility.hpp</text>
</a>
</g>
</g>
<!-- Node2 -->
<g id="node2" class="node">
<title>Node2</title>
<g id="a_node2"><a xlink:href="nvml__device__handle__impl_8hpp.html" target="_top" xlink:title="Implements a pImpl class for an NVML device handle.">
<polygon fill="white" stroke="black" points="0,-0.5 0,-30.5 168,-30.5 168,-0.5 0,-0.5"/>
<text text-anchor="start" x="8" y="-18.5" font-family="Helvetica,sans-Serif" font-size="10.00">include/hws/gpu_nvidia</text>
<text text-anchor="middle" x="84" y="-7.5" font-family="Helvetica,sans-Serif" font-size="10.00">/nvml_device_handle_impl.hpp</text>
</a>
</g>
</g>
<!-- Node1&#45;&gt;Node2 -->
<g id="edge1" class="edge">
<title>Node1&#45;&gt;Node2</title>
<path fill="none" stroke="midnightblue" d="M84,-57.11C84,-48.15 84,-38.32 84,-30.58"/>
<polygon fill="midnightblue" stroke="midnightblue" points="80.5,-57.4 84,-67.4 87.5,-57.4 80.5,-57.4"/>
</g>
</g>
</svg>
