<?xml version="1.0" encoding="UTF-8" standalone="no"?>
<!DOCTYPE svg PUBLIC "-//W3C//DTD SVG 1.1//EN"
 "http://www.w3.org/Graphics/SVG/1.1/DTD/svg11.dtd">
<!-- Generated by graphviz version 2.43.0 (0)
 -->
<!-- Title: include/hws/hardware_sampler.hpp Pages: 1 -->
<svg width="765pt" height="159pt"
 viewBox="0.00 0.00 765.04 159.00" xmlns="http://www.w3.org/2000/svg" xmlns:xlink="http://www.w3.org/1999/xlink">
<g id="graph0" class="graph" transform="scale(1 1) rotate(0) translate(4 155)">
<title>include/hws/hardware_sampler.hpp</title>
<!-- Node1 -->
<g id="Node000001" class="node">
<title>Node1</title>
<g id="a_Node000001"><a xlink:title="Defines the base class for all hardware samplers.">
<polygon fill="#999999" stroke="#666666" points="378.04,-151 255.04,-151 255.04,-121 378.04,-121 378.04,-151"/>
<text text-anchor="start" x="263.04" y="-139" font-family="Helvetica,sans-Serif" font-size="10.00">include/hws/hardware</text>
<text text-anchor="middle" x="316.54" y="-128" font-family="Helvetica,sans-Serif" font-size="10.00">_sampler.hpp</text>
</a>
</g>
</g>
<!-- Node2 -->
<g id="Node000002" class="node">
<title>Node2</title>
<g id="a_Node000002"><a xlink:href="core_8hpp.html" target="_top" xlink:title="Core header containing all other necessary other headers.">
<polygon fill="white" stroke="#666666" points="398.04,-19 279.04,-19 279.04,0 398.04,0 398.04,-19"/>
<text text-anchor="middle" x="338.54" y="-7" font-family="Helvetica,sans-Serif" font-size="10.00">include/hws/core.hpp</text>
</a>
</g>
</g>
<!-- Node1&#45;&gt;Node2 -->
<g id="edge1_Node000001_Node000002" class="edge">
<title>Node1&#45;&gt;Node2</title>
<g id="a_edge1_Node000001_Node000002"><a xlink:title=" ">
<path fill="none" stroke="#63b8ff" d="M244.79,-133.79C162.94,-130.71 36.53,-120.21 6.54,-85 -2.1,-74.85 -2.24,-65.03 6.54,-55 41.25,-15.34 193.23,-9.53 279.03,-9.52"/>
<polygon fill="#63b8ff" stroke="#63b8ff" points="244.68,-137.29 254.79,-134.14 244.92,-130.29 244.68,-137.29"/>
</a>
</g>
</g>
<!-- Node3 -->
<g id="Node000003" class="node">
<title>Node3</title>
<g id="a_Node000003"><a xlink:href="cpu_2hardware__sampler_8hpp.html" target="_top" xlink:title="Defines a hardware sampler for CPUs using the turbostat, lscpu, and free utilities (requires root).">
<polygon fill="white" stroke="#666666" points="159.04,-85 16.04,-85 16.04,-55 159.04,-55 159.04,-85"/>
<text text-anchor="start" x="24.04" y="-73" font-family="Helvetica,sans-Serif" font-size="10.00">include/hws/cpu/hardware</text>
<text text-anchor="middle" x="87.54" y="-62" font-family="Helvetica,sans-Serif" font-size="10.00">_sampler.hpp</text>
</a>
</g>
</g>
<!-- Node1&#45;&gt;Node3 -->
<g id="edge2_Node000001_Node000003" class="edge">
<title>Node1&#45;&gt;Node3</title>
<g id="a_edge2_Node000001_Node000003"><a xlink:title=" ">
<path fill="none" stroke="#63b8ff" d="M256.62,-118.25C219.63,-107.91 172.7,-94.8 137.68,-85.01"/>
<polygon fill="#63b8ff" stroke="#63b8ff" points="255.71,-121.63 266.29,-120.95 257.6,-114.89 255.71,-121.63"/>
</a>
</g>
</g>
<!-- Node4 -->
<g id="Node000004" class="node">
<title>Node4</title>
<g id="a_Node000004"><a xlink:href="gpu__amd_2hardware__sampler_8hpp.html" target="_top" xlink:title="Defines a hardware sampler for AMD GPUs using AMD&#39;s ROCm SMI library.">
<polygon fill="white" stroke="#666666" points="308.04,-85 177.04,-85 177.04,-55 308.04,-55 308.04,-85"/>
<text text-anchor="start" x="185.04" y="-73" font-family="Helvetica,sans-Serif" font-size="10.00">include/hws/gpu_amd</text>
<text text-anchor="middle" x="242.54" y="-62" font-family="Helvetica,sans-Serif" font-size="10.00">/hardware_sampler.hpp</text>
</a>
</g>
</g>
<!-- Node1&#45;&gt;Node4 -->
<g id="edge3_Node000001_Node000004" class="edge">
<title>Node1&#45;&gt;Node4</title>
<g id="a_edge3_Node000001_Node000004"><a xlink:title=" ">
<path fill="none" stroke="#63b8ff" d="M292.49,-114.2C281.51,-104.7 268.78,-93.69 258.92,-85.16"/>
<polygon fill="#63b8ff" stroke="#63b8ff" points="290.27,-116.9 300.12,-120.8 294.85,-111.61 290.27,-116.9"/>
</a>
</g>
</g>
<!-- Node5 -->
<g id="Node000005" class="node">
<title>Node5</title>
<g id="a_Node000005"><a xlink:href="gpu__intel_2hardware__sampler_8hpp.html" target="_top" xlink:title="Defines a hardware sampler for Intel GPUs using Intel&#39;s Level Zero.">
<polygon fill="white" stroke="#666666" points="457.04,-85 326.04,-85 326.04,-55 457.04,-55 457.04,-85"/>
<text text-anchor="start" x="334.04" y="-73" font-family="Helvetica,sans-Serif" font-size="10.00">include/hws/gpu_intel</text>
<text text-anchor="middle" x="391.54" y="-62" font-family="Helvetica,sans-Serif" font-size="10.00">/hardware_sampler.hpp</text>
</a>
</g>
</g>
<!-- Node1&#45;&gt;Node5 -->
<g id="edge4_Node000001_Node000005" class="edge">
<title>Node1&#45;&gt;Node5</title>
<g id="a_edge4_Node000001_Node000005"><a xlink:title=" ">
<path fill="none" stroke="#63b8ff" d="M340.92,-114.2C352.05,-104.7 364.95,-93.69 374.94,-85.16"/>
<polygon fill="#63b8ff" stroke="#63b8ff" points="338.52,-111.64 333.19,-120.8 343.07,-116.97 338.52,-111.64"/>
</a>
</g>
</g>
<!-- Node6 -->
<g id="Node000006" class="node">
<title>Node6</title>
<g id="a_Node000006"><a xlink:href="gpu__nvidia_2hardware__sampler_8hpp.html" target="_top" xlink:title="Defines a hardware sampler for NVIDIA GPUs using NVIDIA&#39;s Management Library (NVML).">
<polygon fill="white" stroke="#666666" points="606.04,-85 475.04,-85 475.04,-55 606.04,-55 606.04,-85"/>
<text text-anchor="start" x="483.04" y="-73" font-family="Helvetica,sans-Serif" font-size="10.00">include/hws/gpu_nvidia</text>
<text text-anchor="middle" x="540.54" y="-62" font-family="Helvetica,sans-Serif" font-size="10.00">/hardware_sampler.hpp</text>
</a>
</g>
</g>
<!-- Node1&#45;&gt;Node6 -->
<g id="edge5_Node000001_Node000006" class="edge">
<title>Node1&#45;&gt;Node6</title>
<g id="a_edge5_Node000001_Node000006"><a xlink:title=" ">
<path fill="none" stroke="#63b8ff" d="M375.62,-118.12C411.73,-107.8 457.39,-94.76 491.5,-85.01"/>
<polygon fill="#63b8ff" stroke="#63b8ff" points="374.35,-114.84 365.7,-120.95 376.28,-121.57 374.35,-114.84"/>
</a>
</g>
</g>
<!-- Node7 -->
<g id="Node000007" class="node">
<title>Node7</title>
<g id="a_Node000007"><a xlink:href="system__hardware__sampler_8hpp.html" target="_top" xlink:title="Defines a hardware sampler for the whole system, i.e., automatically creates CPU and GPU hardware sam...">
<polygon fill="white" stroke="#666666" points="757.04,-85 624.04,-85 624.04,-55 757.04,-55 757.04,-85"/>
<text text-anchor="start" x="632.04" y="-73" font-family="Helvetica,sans-Serif" font-size="10.00">include/hws/system</text>
<text text-anchor="middle" x="690.54" y="-62" font-family="Helvetica,sans-Serif" font-size="10.00">_hardware_sampler.hpp</text>
</a>
</g>
</g>
<!-- Node1&#45;&gt;Node7 -->
<g id="edge6_Node000001_Node000007" class="edge">
<title>Node1&#45;&gt;Node7</title>
<g id="a_edge6_Node000001_Node000007"><a xlink:title=" ">
<path fill="none" stroke="#63b8ff" d="M388.39,-123.38C448.99,-113.48 538.01,-98.72 615.54,-85 618.28,-84.52 621.08,-84.02 623.9,-83.51"/>
<polygon fill="#63b8ff" stroke="#63b8ff" points="387.47,-119.98 378.16,-125.04 388.59,-126.89 387.47,-119.98"/>
</a>
</g>
</g>
<!-- Node7&#45;&gt;Node2 -->
<g id="edge7_Node000007_Node000002" class="edge">
<title>Node7&#45;&gt;Node2</title>
<g id="a_edge7_Node000007_Node000002"><a xlink:title=" ">
<path fill="none" stroke="#63b8ff" d="M613.94,-54.74C532.12,-40.62 448.12,-27.37 394.32,-19.04"/>
<polygon fill="#63b8ff" stroke="#63b8ff" points="613.45,-58.21 623.9,-56.47 614.65,-51.31 613.45,-58.21"/>
</a>
</g>
</g>
</g>
</svg>
