<?xml version="1.0" encoding="UTF-8" standalone="no"?>
<!DOCTYPE svg PUBLIC "-//W3C//DTD SVG 1.1//EN"
 "http://www.w3.org/Graphics/SVG/1.1/DTD/svg11.dtd">
<!-- Generated by graphviz version 2.43.0 (0)
 -->
<!-- Title: include/hws/hardware_sampler.hpp Pages: 1 -->
<svg width="765pt" height="162pt"
 viewBox="0.00 0.00 765.25 162.00" xmlns="http://www.w3.org/2000/svg" xmlns:xlink="http://www.w3.org/1999/xlink">
<g id="graph0" class="graph" transform="scale(1 1) rotate(0) translate(4 158)">
<title>include/hws/hardware_sampler.hpp</title>
<polygon fill="white" stroke="transparent" points="-4,4 -4,-158 761.25,-158 761.25,4 -4,4"/>
<!-- Node1 -->
<g id="node1" class="node">
<title>Node1</title>
<g id="a_node1"><a xlink:title="Defines the base class for all hardware samplers.">
<polygon fill="#bfbfbf" stroke="black" points="255.25,-123.5 255.25,-153.5 378.25,-153.5 378.25,-123.5 255.25,-123.5"/>
<text text-anchor="start" x="263.25" y="-141.5" font-family="Helvetica,sans-Serif" font-size="10.00">include/hws/hardware</text>
<text text-anchor="middle" x="316.75" y="-130.5" font-family="Helvetica,sans-Serif" font-size="10.00">_sampler.hpp</text>
</a>
</g>
</g>
<!-- Node2 -->
<g id="node2" class="node">
<title>Node2</title>
<g id="a_node2"><a xlink:href="core_8hpp.html" target="_top" xlink:title="Core header containing all other necessary other headers.">
<polygon fill="white" stroke="black" points="279.25,-0.5 279.25,-19.5 398.25,-19.5 398.25,-0.5 279.25,-0.5"/>
<text text-anchor="middle" x="338.75" y="-7.5" font-family="Helvetica,sans-Serif" font-size="10.00">include/hws/core.hpp</text>
</a>
</g>
</g>
<!-- Node1&#45;&gt;Node2 -->
<g id="edge1" class="edge">
<title>Node1&#45;&gt;Node2</title>
<path fill="none" stroke="midnightblue" d="M245,-136.17C163.14,-132.95 36.72,-122.24 6.75,-87 -2.17,-76.5 -2.31,-66.38 6.75,-56 41.43,-16.3 193.43,-10.26 279.24,-10.12"/>
<polygon fill="midnightblue" stroke="midnightblue" points="244.88,-139.67 255,-136.53 245.13,-132.67 244.88,-139.67"/>
</g>
<!-- Node3 -->
<g id="node3" class="node">
<title>Node3</title>
<g id="a_node3"><a xlink:href="cpu_2hardware__sampler_8hpp.html" target="_top" xlink:title="Defines a hardware sampler for CPUs using the turbostat, lscpu, and free utilities (requires root).">
<polygon fill="white" stroke="black" points="16.25,-56.5 16.25,-86.5 159.25,-86.5 159.25,-56.5 16.25,-56.5"/>
<text text-anchor="start" x="24.25" y="-74.5" font-family="Helvetica,sans-Serif" font-size="10.00">include/hws/cpu/hardware</text>
<text text-anchor="middle" x="87.75" y="-63.5" font-family="Helvetica,sans-Serif" font-size="10.00">_sampler.hpp</text>
</a>
</g>
</g>
<!-- Node1&#45;&gt;Node3 -->
<g id="edge2" class="edge">
<title>Node1&#45;&gt;Node3</title>
<path fill="none" stroke="midnightblue" d="M257.62,-120.71C220.35,-110.14 172.78,-96.63 137.47,-86.61"/>
<polygon fill="midnightblue" stroke="midnightblue" points="256.77,-124.11 267.35,-123.48 258.68,-117.38 256.77,-124.11"/>
</g>
<!-- Node4 -->
<g id="node4" class="node">
<title>Node4</title>
<g id="a_node4"><a xlink:href="gpu__amd_2hardware__sampler_8hpp.html" target="_top" xlink:title="Defines a hardware sampler for AMD GPUs using AMD&#39;s ROCm SMI library.">
<polygon fill="white" stroke="black" points="177.25,-56.5 177.25,-86.5 308.25,-86.5 308.25,-56.5 177.25,-56.5"/>
<text text-anchor="start" x="185.25" y="-74.5" font-family="Helvetica,sans-Serif" font-size="10.00">include/hws/gpu_amd</text>
<text text-anchor="middle" x="242.75" y="-63.5" font-family="Helvetica,sans-Serif" font-size="10.00">/hardware_sampler.hpp</text>
</a>
</g>
</g>
<!-- Node1&#45;&gt;Node4 -->
<g id="edge3" class="edge">
<title>Node1&#45;&gt;Node4</title>
<path fill="none" stroke="midnightblue" d="M292.96,-116.6C281.78,-106.78 268.76,-95.34 258.78,-86.58"/>
<polygon fill="midnightblue" stroke="midnightblue" points="290.87,-119.43 300.7,-123.4 295.49,-114.17 290.87,-119.43"/>
</g>
<!-- Node5 -->
<g id="node5" class="node">
<title>Node5</title>
<g id="a_node5"><a xlink:href="gpu__intel_2hardware__sampler_8hpp.html" target="_top" xlink:title="Defines a hardware sampler for Intel GPUs using Intel&#39;s Level Zero.">
<polygon fill="white" stroke="black" points="326.25,-56.5 326.25,-86.5 457.25,-86.5 457.25,-56.5 326.25,-56.5"/>
<text text-anchor="start" x="334.25" y="-74.5" font-family="Helvetica,sans-Serif" font-size="10.00">include/hws/gpu_intel</text>
<text text-anchor="middle" x="391.75" y="-63.5" font-family="Helvetica,sans-Serif" font-size="10.00">/hardware_sampler.hpp</text>
</a>
</g>
</g>
<!-- Node1&#45;&gt;Node5 -->
<g id="edge4" class="edge">
<title>Node1&#45;&gt;Node5</title>
<path fill="none" stroke="midnightblue" d="M340.87,-116.6C352.2,-106.78 365.4,-95.34 375.51,-86.58"/>
<polygon fill="midnightblue" stroke="midnightblue" points="338.29,-114.2 333.03,-123.4 342.88,-119.49 338.29,-114.2"/>
</g>
<!-- Node6 -->
<g id="node6" class="node">
<title>Node6</title>
<g id="a_node6"><a xlink:href="gpu__nvidia_2hardware__sampler_8hpp.html" target="_top" xlink:title="Defines a hardware sampler for NVIDIA GPUs using NVIDIA&#39;s Management Library (NVML).">
<polygon fill="white" stroke="black" points="475.25,-56.5 475.25,-86.5 606.25,-86.5 606.25,-56.5 475.25,-56.5"/>
<text text-anchor="start" x="483.25" y="-74.5" font-family="Helvetica,sans-Serif" font-size="10.00">include/hws/gpu_nvidia</text>
<text text-anchor="middle" x="540.75" y="-63.5" font-family="Helvetica,sans-Serif" font-size="10.00">/hardware_sampler.hpp</text>
</a>
</g>
</g>
<!-- Node1&#45;&gt;Node6 -->
<g id="edge5" class="edge">
<title>Node1&#45;&gt;Node6</title>
<path fill="none" stroke="midnightblue" d="M375.06,-120.58C411.45,-110.02 457.73,-96.59 492.13,-86.61"/>
<polygon fill="midnightblue" stroke="midnightblue" points="373.71,-117.33 365.08,-123.48 375.66,-124.05 373.71,-117.33"/>
</g>
<!-- Node7 -->
<g id="node7" class="node">
<title>Node7</title>
<g id="a_node7"><a xlink:href="system__hardware__sampler_8hpp.html" target="_top" xlink:title="Defines a hardware sampler for the whole system, i.e., automatically creates CPU and GPU hardware sam...">
<polygon fill="white" stroke="black" points="624.25,-56.5 624.25,-86.5 757.25,-86.5 757.25,-56.5 624.25,-56.5"/>
<text text-anchor="start" x="632.25" y="-74.5" font-family="Helvetica,sans-Serif" font-size="10.00">include/hws/system</text>
<text text-anchor="middle" x="690.75" y="-63.5" font-family="Helvetica,sans-Serif" font-size="10.00">_hardware_sampler.hpp</text>
</a>
</g>
</g>
<!-- Node1&#45;&gt;Node7 -->
<g id="edge6" class="edge">
<title>Node1&#45;&gt;Node7</title>
<path fill="none" stroke="midnightblue" d="M388.62,-125.85C449.23,-115.91 538.26,-101.03 615.75,-87 618.5,-86.5 621.29,-85.99 624.11,-85.47"/>
<polygon fill="midnightblue" stroke="midnightblue" points="387.69,-122.46 378.39,-127.53 388.82,-129.37 387.69,-122.46"/>
</g>
<!-- Node7&#45;&gt;Node2 -->
<g id="edge7" class="edge">
<title>Node7&#45;&gt;Node2</title>
<path fill="none" stroke="midnightblue" d="M614.14,-55.74C532.23,-41.27 448.08,-27.89 394.28,-19.52"/>
<polygon fill="midnightblue" stroke="midnightblue" points="613.66,-59.21 624.12,-57.51 614.88,-52.32 613.66,-59.21"/>
</g>
</g>
</svg>
