<?xml version="1.0" encoding="UTF-8" standalone="no"?>
<!DOCTYPE svg PUBLIC "-//W3C//DTD SVG 1.1//EN"
 "http://www.w3.org/Graphics/SVG/1.1/DTD/svg11.dtd">
<!-- Generated by graphviz version 2.43.0 (0)
 -->
<!-- Title: include/hws/gpu_intel/level_zero_device_handle.hpp Pages: 1 -->
<svg width="304pt" height="117pt"
 viewBox="0.00 0.00 303.50 117.00" xmlns="http://www.w3.org/2000/svg" xmlns:xlink="http://www.w3.org/1999/xlink">
<g id="graph0" class="graph" transform="scale(1 1) rotate(0) translate(4 113)">
<title>include/hws/gpu_intel/level_zero_device_handle.hpp</title>
<polygon fill="white" stroke="transparent" points="-4,4 -4,-113 299.5,-113 299.5,4 -4,4"/>
<!-- Node1 -->
<g id="node1" class="node">
<title>Node1</title>
<g id="a_node1"><a xlink:title="Defines a pImpl class for a Level Zero device handle.">
<polygon fill="#bfbfbf" stroke="black" points="60,-78.5 60,-108.5 227,-108.5 227,-78.5 60,-78.5"/>
<text text-anchor="start" x="68" y="-96.5" font-family="Helvetica,sans-Serif" font-size="10.00">include/hws/gpu_intel</text>
<text text-anchor="middle" x="143.5" y="-85.5" font-family="Helvetica,sans-Serif" font-size="10.00">/level_zero_device_handle.hpp</text>
</a>
</g>
</g>
<!-- Node2 -->
<g id="node2" class="node">
<title>Node2</title>
<g id="a_node2"><a xlink:href="gpu__intel_2hardware__sampler_8hpp.html" target="_top" xlink:title="Defines a hardware sampler for Intel GPUs using Intel&#39;s Level Zero.">
<polygon fill="white" stroke="black" points="0,-6 0,-36 131,-36 131,-6 0,-6"/>
<text text-anchor="start" x="8" y="-24" font-family="Helvetica,sans-Serif" font-size="10.00">include/hws/gpu_intel</text>
<text text-anchor="middle" x="65.5" y="-13" font-family="Helvetica,sans-Serif" font-size="10.00">/hardware_sampler.hpp</text>
</a>
</g>
</g>
<!-- Node1&#45;&gt;Node2 -->
<g id="edge1" class="edge">
<title>Node1&#45;&gt;Node2</title>
<path fill="none" stroke="midnightblue" d="M120.23,-71.46C107.55,-60 92.2,-46.14 80.99,-36"/>
<polygon fill="midnightblue" stroke="midnightblue" points="117.95,-74.12 127.72,-78.23 122.64,-68.93 117.95,-74.12"/>
</g>
<!-- Node3 -->
<g id="node3" class="node">
<title>Node3</title>
<g id="a_node3"><a xlink:href="level__zero__device__handle__impl_8hpp.html" target="_top" xlink:title="Implements a pImpl class for a Level Zero device handle.">
<polygon fill="white" stroke="black" points="149.5,-0.5 149.5,-41.5 295.5,-41.5 295.5,-0.5 149.5,-0.5"/>
<text text-anchor="start" x="157.5" y="-29.5" font-family="Helvetica,sans-Serif" font-size="10.00">include/hws/gpu_intel</text>
<text text-anchor="start" x="157.5" y="-18.5" font-family="Helvetica,sans-Serif" font-size="10.00">/level_zero_device_handle</text>
<text text-anchor="middle" x="222.5" y="-7.5" font-family="Helvetica,sans-Serif" font-size="10.00">_impl.hpp</text>
</a>
</g>
</g>
<!-- Node1&#45;&gt;Node3 -->
<g id="edge2" class="edge">
<title>Node1&#45;&gt;Node3</title>
<path fill="none" stroke="midnightblue" d="M167.17,-71.38C177.76,-61.93 190.17,-50.85 200.55,-41.59"/>
<polygon fill="midnightblue" stroke="midnightblue" points="164.62,-68.96 159.49,-78.23 169.28,-74.19 164.62,-68.96"/>
</g>
</g>
</svg>
