<?xml version="1.0" encoding="UTF-8" standalone="no"?>
<!DOCTYPE svg PUBLIC "-//W3C//DTD SVG 1.1//EN"
 "http://www.w3.org/Graphics/SVG/1.1/DTD/svg11.dtd">
<!-- Generated by graphviz version 2.43.0 (0)
 -->
<!-- Title: include/hws/gpu_intel/level_zero_device_handle.hpp Pages: 1 -->
<svg width="304pt" height="115pt"
 viewBox="0.00 0.00 303.50 115.00" xmlns="http://www.w3.org/2000/svg" xmlns:xlink="http://www.w3.org/1999/xlink">
<g id="graph0" class="graph" transform="scale(1 1) rotate(0) translate(4 111)">
<title>include/hws/gpu_intel/level_zero_device_handle.hpp</title>
<!-- Node1 -->
<g id="Node000001" class="node">
<title>Node1</title>
<g id="a_Node000001"><a xlink:title="Defines a pImpl class for a Level Zero device handle.">
<polygon fill="#999999" stroke="#666666" points="227,-107 60,-107 60,-77 227,-77 227,-107"/>
<text text-anchor="start" x="68" y="-95" font-family="Helvetica,sans-Serif" font-size="10.00">include/hws/gpu_intel</text>
<text text-anchor="middle" x="143.5" y="-84" font-family="Helvetica,sans-Serif" font-size="10.00">/level_zero_device_handle.hpp</text>
</a>
</g>
</g>
<!-- Node2 -->
<g id="Node000002" class="node">
<title>Node2</title>
<g id="a_Node000002"><a xlink:href="gpu__intel_2hardware__sampler_8hpp.html" target="_top" xlink:title="Defines a hardware sampler for Intel GPUs using Intel&#39;s Level Zero.">
<polygon fill="white" stroke="#666666" points="131,-35.5 0,-35.5 0,-5.5 131,-5.5 131,-35.5"/>
<text text-anchor="start" x="8" y="-23.5" font-family="Helvetica,sans-Serif" font-size="10.00">include/hws/gpu_intel</text>
<text text-anchor="middle" x="65.5" y="-12.5" font-family="Helvetica,sans-Serif" font-size="10.00">/hardware_sampler.hpp</text>
</a>
</g>
</g>
<!-- Node1&#45;&gt;Node2 -->
<g id="edge1_Node000001_Node000002" class="edge">
<title>Node1&#45;&gt;Node2</title>
<g id="a_edge1_Node000001_Node000002"><a xlink:title=" ">
<path fill="none" stroke="#63b8ff" d="M119.92,-69.99C107.4,-58.84 92.36,-45.43 81.26,-35.54"/>
<polygon fill="#63b8ff" stroke="#63b8ff" points="117.92,-72.9 127.72,-76.94 122.58,-67.67 117.92,-72.9"/>
</a>
</g>
</g>
<!-- Node3 -->
<g id="Node000003" class="node">
<title>Node3</title>
<g id="a_Node000003"><a xlink:href="level__zero__device__handle__impl_8hpp.html" target="_top" xlink:title="Implements a pImpl class for a Level Zero device handle.">
<polygon fill="white" stroke="#666666" points="295.5,-41 149.5,-41 149.5,0 295.5,0 295.5,-41"/>
<text text-anchor="start" x="157.5" y="-29" font-family="Helvetica,sans-Serif" font-size="10.00">include/hws/gpu_intel</text>
<text text-anchor="start" x="157.5" y="-18" font-family="Helvetica,sans-Serif" font-size="10.00">/level_zero_device_handle</text>
<text text-anchor="middle" x="222.5" y="-7" font-family="Helvetica,sans-Serif" font-size="10.00">_impl.hpp</text>
</a>
</g>
</g>
<!-- Node1&#45;&gt;Node3 -->
<g id="edge2_Node000001_Node000003" class="edge">
<title>Node1&#45;&gt;Node3</title>
<g id="a_edge2_Node000001_Node000003"><a xlink:title=" ">
<path fill="none" stroke="#63b8ff" d="M167.11,-70.23C177.61,-60.99 189.91,-50.17 200.25,-41.07"/>
<polygon fill="#63b8ff" stroke="#63b8ff" points="164.68,-67.7 159.49,-76.94 169.31,-72.96 164.68,-67.7"/>
</a>
</g>
</g>
</g>
</svg>
