<?xml version="1.0" encoding="UTF-8" standalone="no"?>
<!DOCTYPE svg PUBLIC "-//W3C//DTD SVG 1.1//EN"
 "http://www.w3.org/Graphics/SVG/1.1/DTD/svg11.dtd">
<!-- Generated by graphviz version 2.43.0 (0)
 -->
<!-- Title: include/hws/sample_category.hpp Pages: 1 -->
<svg width="803pt" height="225pt"
 viewBox="0.00 0.00 802.96 225.00" xmlns="http://www.w3.org/2000/svg" xmlns:xlink="http://www.w3.org/1999/xlink">
<g id="graph0" class="graph" transform="scale(1 1) rotate(0) translate(4 221)">
<title>include/hws/sample_category.hpp</title>
<!-- Node1 -->
<g id="Node000001" class="node">
<title>Node1</title>
<g id="a_Node000001"><a xlink:title="Defines an enum class with all sample categories to be able to only selectively enable some samples.">
<polygon fill="#999999" stroke="#666666" points="394.96,-217 281.96,-217 281.96,-187 394.96,-187 394.96,-217"/>
<text text-anchor="start" x="289.96" y="-205" font-family="Helvetica,sans-Serif" font-size="10.00">include/hws/sample</text>
<text text-anchor="middle" x="338.46" y="-194" font-family="Helvetica,sans-Serif" font-size="10.00">_category.hpp</text>
</a>
</g>
</g>
<!-- Node2 -->
<g id="Node000002" class="node">
<title>Node2</title>
<g id="a_Node000002"><a xlink:href="core_8hpp.html" target="_top" xlink:title="Core header containing all other necessary other headers.">
<polygon fill="white" stroke="#666666" points="140.96,-19 21.96,-19 21.96,0 140.96,0 140.96,-19"/>
<text text-anchor="middle" x="81.46" y="-7" font-family="Helvetica,sans-Serif" font-size="10.00">include/hws/core.hpp</text>
</a>
</g>
</g>
<!-- Node1&#45;&gt;Node2 -->
<g id="edge1_Node000001_Node000002" class="edge">
<title>Node1&#45;&gt;Node2</title>
<g id="a_edge1_Node000001_Node000002"><a xlink:title=" ">
<path fill="none" stroke="#63b8ff" d="M271.55,-199.5C192.72,-193.68 64.94,-170.66 5.46,-85 -2.14,-74.05 -1.17,-66.57 5.46,-55 15.65,-37.23 36,-25.87 53.07,-19.08"/>
<polygon fill="#63b8ff" stroke="#63b8ff" points="271.66,-203.02 281.87,-200.18 272.12,-196.03 271.66,-203.02"/>
</a>
</g>
</g>
<!-- Node3 -->
<g id="Node000003" class="node">
<title>Node3</title>
<g id="a_Node000003"><a xlink:href="cpu_2hardware__sampler_8hpp.html" target="_top" xlink:title="Defines a hardware sampler for CPUs using the turbostat, lscpu, and free utilities (requires root).">
<polygon fill="white" stroke="#666666" points="308.96,-85 165.96,-85 165.96,-55 308.96,-55 308.96,-85"/>
<text text-anchor="start" x="173.96" y="-73" font-family="Helvetica,sans-Serif" font-size="10.00">include/hws/cpu/hardware</text>
<text text-anchor="middle" x="237.46" y="-62" font-family="Helvetica,sans-Serif" font-size="10.00">_sampler.hpp</text>
</a>
</g>
</g>
<!-- Node1&#45;&gt;Node3 -->
<g id="edge2_Node000001_Node000003" class="edge">
<title>Node1&#45;&gt;Node3</title>
<g id="a_edge2_Node000001_Node000003"><a xlink:title=" ">
<path fill="none" stroke="#63b8ff" d="M302.86,-181.41C290.66,-173.29 277.75,-162.96 268.46,-151 252.93,-131 244.36,-102.28 240.35,-85.25"/>
<polygon fill="#63b8ff" stroke="#63b8ff" points="301.25,-184.52 311.57,-186.91 304.99,-178.61 301.25,-184.52"/>
</a>
</g>
</g>
<!-- Node4 -->
<g id="Node000004" class="node">
<title>Node4</title>
<g id="a_Node000004"><a xlink:href="gpu__amd_2hardware__sampler_8hpp.html" target="_top" xlink:title="Defines a hardware sampler for AMD GPUs using AMD&#39;s ROCm SMI library.">
<polygon fill="white" stroke="#666666" points="496.96,-85 365.96,-85 365.96,-55 496.96,-55 496.96,-85"/>
<text text-anchor="start" x="373.96" y="-73" font-family="Helvetica,sans-Serif" font-size="10.00">include/hws/gpu_amd</text>
<text text-anchor="middle" x="431.46" y="-62" font-family="Helvetica,sans-Serif" font-size="10.00">/hardware_sampler.hpp</text>
</a>
</g>
</g>
<!-- Node1&#45;&gt;Node4 -->
<g id="edge3_Node000001_Node000004" class="edge">
<title>Node1&#45;&gt;Node4</title>
<g id="a_edge3_Node000001_Node000004"><a xlink:title=" ">
<path fill="none" stroke="#63b8ff" d="M376.14,-181.42C388.32,-173.45 400.88,-163.21 409.46,-151 423.54,-130.97 428.62,-102.26 430.45,-85.24"/>
<polygon fill="#63b8ff" stroke="#63b8ff" points="374.07,-178.59 367.4,-186.82 377.75,-184.54 374.07,-178.59"/>
</a>
</g>
</g>
<!-- Node5 -->
<g id="Node000005" class="node">
<title>Node5</title>
<g id="a_Node000005"><a xlink:href="gpu__intel_2hardware__sampler_8hpp.html" target="_top" xlink:title="Defines a hardware sampler for Intel GPUs using Intel&#39;s Level Zero.">
<polygon fill="white" stroke="#666666" points="645.96,-85 514.96,-85 514.96,-55 645.96,-55 645.96,-85"/>
<text text-anchor="start" x="522.96" y="-73" font-family="Helvetica,sans-Serif" font-size="10.00">include/hws/gpu_intel</text>
<text text-anchor="middle" x="580.46" y="-62" font-family="Helvetica,sans-Serif" font-size="10.00">/hardware_sampler.hpp</text>
</a>
</g>
</g>
<!-- Node1&#45;&gt;Node5 -->
<g id="edge4_Node000001_Node000005" class="edge">
<title>Node1&#45;&gt;Node5</title>
<g id="a_edge4_Node000001_Node000005"><a xlink:title=" ">
<path fill="none" stroke="#63b8ff" d="M373.8,-182.02C422.84,-155.67 510.42,-108.62 554.13,-85.14"/>
<polygon fill="#63b8ff" stroke="#63b8ff" points="371.97,-179.02 364.82,-186.84 375.28,-185.19 371.97,-179.02"/>
</a>
</g>
</g>
<!-- Node6 -->
<g id="Node000006" class="node">
<title>Node6</title>
<g id="a_Node000006"><a xlink:href="gpu__nvidia_2hardware__sampler_8hpp.html" target="_top" xlink:title="Defines a hardware sampler for NVIDIA GPUs using NVIDIA&#39;s Management Library (NVML).">
<polygon fill="white" stroke="#666666" points="794.96,-85 663.96,-85 663.96,-55 794.96,-55 794.96,-85"/>
<text text-anchor="start" x="671.96" y="-73" font-family="Helvetica,sans-Serif" font-size="10.00">include/hws/gpu_nvidia</text>
<text text-anchor="middle" x="729.46" y="-62" font-family="Helvetica,sans-Serif" font-size="10.00">/hardware_sampler.hpp</text>
</a>
</g>
</g>
<!-- Node1&#45;&gt;Node6 -->
<g id="edge5_Node000001_Node000006" class="edge">
<title>Node1&#45;&gt;Node6</title>
<g id="a_edge5_Node000001_Node000006"><a xlink:title=" ">
<path fill="none" stroke="#63b8ff" d="M390.32,-183.76C468.48,-157.77 614.99,-109.06 687.13,-85.08"/>
<polygon fill="#63b8ff" stroke="#63b8ff" points="389.06,-180.49 380.68,-186.96 391.27,-187.13 389.06,-180.49"/>
</a>
</g>
</g>
<!-- Node7 -->
<g id="Node000007" class="node">
<title>Node7</title>
<g id="a_Node000007"><a xlink:href="hardware__sampler_8hpp.html" target="_top" xlink:title="Defines the base class for all hardware samplers.">
<polygon fill="white" stroke="#666666" points="399.96,-151 276.96,-151 276.96,-121 399.96,-121 399.96,-151"/>
<text text-anchor="start" x="284.96" y="-139" font-family="Helvetica,sans-Serif" font-size="10.00">include/hws/hardware</text>
<text text-anchor="middle" x="338.46" y="-128" font-family="Helvetica,sans-Serif" font-size="10.00">_sampler.hpp</text>
</a>
</g>
</g>
<!-- Node1&#45;&gt;Node7 -->
<g id="edge6_Node000001_Node000007" class="edge">
<title>Node1&#45;&gt;Node7</title>
<g id="a_edge6_Node000001_Node000007"><a xlink:title=" ">
<path fill="none" stroke="#63b8ff" d="M338.46,-176.54C338.46,-167.96 338.46,-158.61 338.46,-151.16"/>
<polygon fill="#63b8ff" stroke="#63b8ff" points="334.96,-176.8 338.46,-186.8 341.96,-176.8 334.96,-176.8"/>
</a>
</g>
</g>
<!-- Node8 -->
<g id="Node000008" class="node">
<title>Node8</title>
<g id="a_Node000008"><a xlink:href="system__hardware__sampler_8hpp.html" target="_top" xlink:title="Defines a hardware sampler for the whole system, i.e., automatically creates CPU and GPU hardware sam...">
<polygon fill="white" stroke="#666666" points="147.96,-85 14.96,-85 14.96,-55 147.96,-55 147.96,-85"/>
<text text-anchor="start" x="22.96" y="-73" font-family="Helvetica,sans-Serif" font-size="10.00">include/hws/system</text>
<text text-anchor="middle" x="81.46" y="-62" font-family="Helvetica,sans-Serif" font-size="10.00">_hardware_sampler.hpp</text>
</a>
</g>
</g>
<!-- Node1&#45;&gt;Node8 -->
<g id="edge14_Node000001_Node000008" class="edge">
<title>Node1&#45;&gt;Node8</title>
<g id="a_edge14_Node000001_Node000008"><a xlink:title=" ">
<path fill="none" stroke="#63b8ff" d="M301.26,-182.18C249.24,-155.87 155.93,-108.67 109.42,-85.14"/>
<polygon fill="#63b8ff" stroke="#63b8ff" points="299.96,-185.45 310.47,-186.84 303.12,-179.2 299.96,-185.45"/>
</a>
</g>
</g>
<!-- Node7&#45;&gt;Node2 -->
<g id="edge7_Node000007_Node000002" class="edge">
<title>Node7&#45;&gt;Node2</title>
<g id="a_edge7_Node000007_Node000002"><a xlink:title=" ">
<path fill="none" stroke="#63b8ff" d="M338.96,-110.87C337.96,-92.94 333.54,-69.21 318.46,-55 293.4,-31.39 202.69,-19.74 141.04,-14.44"/>
<polygon fill="#63b8ff" stroke="#63b8ff" points="335.46,-110.98 339.2,-120.89 342.46,-110.81 335.46,-110.98"/>
</a>
</g>
</g>
<!-- Node7&#45;&gt;Node3 -->
<g id="edge8_Node000007_Node000003" class="edge">
<title>Node7&#45;&gt;Node3</title>
<g id="a_edge8_Node000007_Node000003"><a xlink:title=" ">
<path fill="none" stroke="#63b8ff" d="M307.37,-115.3C292,-105.56 273.79,-94.02 259.81,-85.16"/>
<polygon fill="#63b8ff" stroke="#63b8ff" points="305.72,-118.4 316.05,-120.8 309.47,-112.49 305.72,-118.4"/>
</a>
</g>
</g>
<!-- Node7&#45;&gt;Node4 -->
<g id="edge9_Node000007_Node000004" class="edge">
<title>Node7&#45;&gt;Node4</title>
<g id="a_edge9_Node000007_Node000004"><a xlink:title=" ">
<path fill="none" stroke="#63b8ff" d="M367.48,-115.03C381.56,-105.34 398.13,-93.94 410.88,-85.16"/>
<polygon fill="#63b8ff" stroke="#63b8ff" points="365.35,-112.24 359.1,-120.8 369.32,-118.01 365.35,-112.24"/>
</a>
</g>
</g>
<!-- Node7&#45;&gt;Node5 -->
<g id="edge10_Node000007_Node000005" class="edge">
<title>Node7&#45;&gt;Node5</title>
<g id="a_edge10_Node000007_Node000005"><a xlink:title=" ">
<path fill="none" stroke="#63b8ff" d="M401.28,-118.39C440.46,-108.03 490.31,-94.84 527.48,-85.01"/>
<polygon fill="#63b8ff" stroke="#63b8ff" points="400.34,-115.01 391.57,-120.95 402.13,-121.78 400.34,-115.01"/>
</a>
</g>
</g>
<!-- Node7&#45;&gt;Node6 -->
<g id="edge11_Node000007_Node000006" class="edge">
<title>Node7&#45;&gt;Node6</title>
<g id="a_edge11_Node000007_Node000006"><a xlink:title=" ">
<path fill="none" stroke="#63b8ff" d="M410.25,-124.32C474.57,-114.59 571.44,-99.57 655.46,-85 658.17,-84.53 660.93,-84.04 663.71,-83.55"/>
<polygon fill="#63b8ff" stroke="#63b8ff" points="409.58,-120.88 400.21,-125.83 410.62,-127.8 409.58,-120.88"/>
</a>
</g>
</g>
<!-- Node7&#45;&gt;Node8 -->
<g id="edge12_Node000007_Node000008" class="edge">
<title>Node7&#45;&gt;Node8</title>
<g id="a_edge12_Node000007_Node000008"><a xlink:title=" ">
<path fill="none" stroke="#63b8ff" d="M272.27,-118.52C230.59,-108.14 177.37,-94.88 137.73,-85.01"/>
<polygon fill="#63b8ff" stroke="#63b8ff" points="271.51,-121.93 282.06,-120.95 273.2,-115.14 271.51,-121.93"/>
</a>
</g>
</g>
<!-- Node8&#45;&gt;Node2 -->
<g id="edge13_Node000008_Node000002" class="edge">
<title>Node8&#45;&gt;Node2</title>
<g id="a_edge13_Node000008_Node000002"><a xlink:title=" ">
<path fill="none" stroke="#63b8ff" d="M81.46,-44.75C81.46,-35.72 81.46,-26.03 81.46,-19.27"/>
<polygon fill="#63b8ff" stroke="#63b8ff" points="77.96,-44.84 81.46,-54.84 84.96,-44.84 77.96,-44.84"/>
</a>
</g>
</g>
</g>
</svg>
