<?xml version="1.0" encoding="UTF-8" standalone="no"?>
<!DOCTYPE svg PUBLIC "-//W3C//DTD SVG 1.1//EN"
 "http://www.w3.org/Graphics/SVG/1.1/DTD/svg11.dtd">
<!-- Generated by graphviz version 2.43.0 (0)
 -->
<!-- Title: include/hws/utility.hpp Pages: 1 -->
<svg width="603pt" height="162pt"
 viewBox="0.00 0.00 603.00 162.00" xmlns="http://www.w3.org/2000/svg" xmlns:xlink="http://www.w3.org/1999/xlink">
<g id="graph0" class="graph" transform="scale(1 1) rotate(0) translate(4 158)">
<title>include/hws/utility.hpp</title>
<polygon fill="white" stroke="transparent" points="-4,4 -4,-158 599,-158 599,4 -4,4"/>
<!-- Node1 -->
<g id="node1" class="node">
<title>Node1</title>
<g id="a_node1"><a xlink:title="Utility functions for the hardware sampling.">
<polygon fill="#bfbfbf" stroke="black" points="238,-134.5 238,-153.5 363,-153.5 363,-134.5 238,-134.5"/>
<text text-anchor="middle" x="300.5" y="-141.5" font-family="Helvetica,sans-Serif" font-size="10.00">include/hws/utility.hpp</text>
</a>
</g>
</g>
<!-- Node2 -->
<g id="node2" class="node">
<title>Node2</title>
<g id="a_node2"><a xlink:href="cpu__samples_8hpp.html" target="_top" xlink:title="Defines the samples used with turbostat, lscpu, and free.">
<polygon fill="white" stroke="black" points="17,-67.5 17,-97.5 132,-97.5 132,-67.5 17,-67.5"/>
<text text-anchor="start" x="25" y="-85.5" font-family="Helvetica,sans-Serif" font-size="10.00">include/hws/cpu/cpu</text>
<text text-anchor="middle" x="74.5" y="-74.5" font-family="Helvetica,sans-Serif" font-size="10.00">_samples.hpp</text>
</a>
</g>
</g>
<!-- Node1&#45;&gt;Node2 -->
<g id="edge1" class="edge">
<title>Node1&#45;&gt;Node2</title>
<path fill="none" stroke="midnightblue" d="M258.18,-131.86C221.28,-122.14 167.58,-108.01 127.76,-97.52"/>
<polygon fill="midnightblue" stroke="midnightblue" points="257.56,-135.31 268.12,-134.48 259.34,-128.54 257.56,-135.31"/>
</g>
<!-- Node4 -->
<g id="node4" class="node">
<title>Node4</title>
<g id="a_node4"><a xlink:href="rocm__smi__samples_8hpp.html" target="_top" xlink:title="Defines the samples used with ROCm SMI.">
<polygon fill="white" stroke="black" points="156,-67.5 156,-97.5 291,-97.5 291,-67.5 156,-67.5"/>
<text text-anchor="start" x="164" y="-85.5" font-family="Helvetica,sans-Serif" font-size="10.00">include/hws/gpu_amd</text>
<text text-anchor="middle" x="223.5" y="-74.5" font-family="Helvetica,sans-Serif" font-size="10.00">/rocm_smi_samples.hpp</text>
</a>
</g>
</g>
<!-- Node1&#45;&gt;Node4 -->
<g id="edge3" class="edge">
<title>Node1&#45;&gt;Node4</title>
<path fill="none" stroke="midnightblue" d="M281.34,-128.2C269.2,-118.81 253.59,-106.75 241.65,-97.52"/>
<polygon fill="midnightblue" stroke="midnightblue" points="279.41,-131.13 289.47,-134.48 283.69,-125.59 279.41,-131.13"/>
</g>
<!-- Node6 -->
<g id="node6" class="node">
<title>Node6</title>
<g id="a_node6"><a xlink:href="level__zero__samples_8hpp.html" target="_top" xlink:title="Defines the samples used with Level Zero.">
<polygon fill="white" stroke="black" points="309,-67.5 309,-97.5 446,-97.5 446,-67.5 309,-67.5"/>
<text text-anchor="start" x="317" y="-85.5" font-family="Helvetica,sans-Serif" font-size="10.00">include/hws/gpu_intel</text>
<text text-anchor="middle" x="377.5" y="-74.5" font-family="Helvetica,sans-Serif" font-size="10.00">/level_zero_samples.hpp</text>
</a>
</g>
</g>
<!-- Node1&#45;&gt;Node6 -->
<g id="edge5" class="edge">
<title>Node1&#45;&gt;Node6</title>
<path fill="none" stroke="midnightblue" d="M319.66,-128.2C331.8,-118.81 347.41,-106.75 359.35,-97.52"/>
<polygon fill="midnightblue" stroke="midnightblue" points="317.31,-125.59 311.53,-134.48 321.59,-131.13 317.31,-125.59"/>
</g>
<!-- Node8 -->
<g id="node8" class="node">
<title>Node8</title>
<g id="a_node8"><a xlink:href="nvml__samples_8hpp.html" target="_top" xlink:title="Defines the samples used with NVML.">
<polygon fill="white" stroke="black" points="464,-67.5 464,-97.5 595,-97.5 595,-67.5 464,-67.5"/>
<text text-anchor="start" x="472" y="-85.5" font-family="Helvetica,sans-Serif" font-size="10.00">include/hws/gpu_nvidia</text>
<text text-anchor="middle" x="529.5" y="-74.5" font-family="Helvetica,sans-Serif" font-size="10.00">/nvml_samples.hpp</text>
</a>
</g>
</g>
<!-- Node1&#45;&gt;Node8 -->
<g id="edge7" class="edge">
<title>Node1&#45;&gt;Node8</title>
<path fill="none" stroke="midnightblue" d="M343.38,-131.86C380.77,-122.14 435.18,-108.01 475.53,-97.52"/>
<polygon fill="midnightblue" stroke="midnightblue" points="342.11,-128.57 333.31,-134.48 343.87,-135.35 342.11,-128.57"/>
</g>
<!-- Node3 -->
<g id="node3" class="node">
<title>Node3</title>
<g id="a_node3"><a xlink:href="cpu_2hardware__sampler_8hpp.html" target="_top" xlink:title="Defines a hardware sampler for CPUs using the turbostat, lscpu, and free utilities (requires root).">
<polygon fill="white" stroke="black" points="0,-0.5 0,-30.5 143,-30.5 143,-0.5 0,-0.5"/>
<text text-anchor="start" x="8" y="-18.5" font-family="Helvetica,sans-Serif" font-size="10.00">include/hws/cpu/hardware</text>
<text text-anchor="middle" x="71.5" y="-7.5" font-family="Helvetica,sans-Serif" font-size="10.00">_sampler.hpp</text>
</a>
</g>
</g>
<!-- Node2&#45;&gt;Node3 -->
<g id="edge2" class="edge">
<title>Node2&#45;&gt;Node3</title>
<path fill="none" stroke="midnightblue" d="M73.39,-57.4C72.97,-48.37 72.51,-38.41 72.15,-30.58"/>
<polygon fill="midnightblue" stroke="midnightblue" points="69.89,-57.57 73.85,-67.4 76.88,-57.25 69.89,-57.57"/>
</g>
<!-- Node5 -->
<g id="node5" class="node">
<title>Node5</title>
<g id="a_node5"><a xlink:href="gpu__amd_2hardware__sampler_8hpp.html" target="_top" xlink:title="Defines a hardware sampler for AMD GPUs using AMD&#39;s ROCm SMI library.">
<polygon fill="white" stroke="black" points="161,-0.5 161,-30.5 292,-30.5 292,-0.5 161,-0.5"/>
<text text-anchor="start" x="169" y="-18.5" font-family="Helvetica,sans-Serif" font-size="10.00">include/hws/gpu_amd</text>
<text text-anchor="middle" x="226.5" y="-7.5" font-family="Helvetica,sans-Serif" font-size="10.00">/hardware_sampler.hpp</text>
</a>
</g>
</g>
<!-- Node4&#45;&gt;Node5 -->
<g id="edge4" class="edge">
<title>Node4&#45;&gt;Node5</title>
<path fill="none" stroke="midnightblue" d="M224.61,-57.4C225.03,-48.37 225.49,-38.41 225.85,-30.58"/>
<polygon fill="midnightblue" stroke="midnightblue" points="221.12,-57.25 224.15,-67.4 228.11,-57.57 221.12,-57.25"/>
</g>
<!-- Node7 -->
<g id="node7" class="node">
<title>Node7</title>
<g id="a_node7"><a xlink:href="gpu__intel_2hardware__sampler_8hpp.html" target="_top" xlink:title="Defines a hardware sampler for Intel GPUs using Intel&#39;s Level Zero.">
<polygon fill="white" stroke="black" points="312,-0.5 312,-30.5 443,-30.5 443,-0.5 312,-0.5"/>
<text text-anchor="start" x="320" y="-18.5" font-family="Helvetica,sans-Serif" font-size="10.00">include/hws/gpu_intel</text>
<text text-anchor="middle" x="377.5" y="-7.5" font-family="Helvetica,sans-Serif" font-size="10.00">/hardware_sampler.hpp</text>
</a>
</g>
</g>
<!-- Node6&#45;&gt;Node7 -->
<g id="edge6" class="edge">
<title>Node6&#45;&gt;Node7</title>
<path fill="none" stroke="midnightblue" d="M377.5,-57.11C377.5,-48.15 377.5,-38.32 377.5,-30.58"/>
<polygon fill="midnightblue" stroke="midnightblue" points="374,-57.4 377.5,-67.4 381,-57.4 374,-57.4"/>
</g>
<!-- Node9 -->
<g id="node9" class="node">
<title>Node9</title>
<g id="a_node9"><a xlink:href="gpu__nvidia_2hardware__sampler_8hpp.html" target="_top" xlink:title="Defines a hardware sampler for NVIDIA GPUs using NVIDIA&#39;s Management Library (NVML).">
<polygon fill="white" stroke="black" points="464,-0.5 464,-30.5 595,-30.5 595,-0.5 464,-0.5"/>
<text text-anchor="start" x="472" y="-18.5" font-family="Helvetica,sans-Serif" font-size="10.00">include/hws/gpu_nvidia</text>
<text text-anchor="middle" x="529.5" y="-7.5" font-family="Helvetica,sans-Serif" font-size="10.00">/hardware_sampler.hpp</text>
</a>
</g>
</g>
<!-- Node8&#45;&gt;Node9 -->
<g id="edge8" class="edge">
<title>Node8&#45;&gt;Node9</title>
<path fill="none" stroke="midnightblue" d="M529.5,-57.11C529.5,-48.15 529.5,-38.32 529.5,-30.58"/>
<polygon fill="midnightblue" stroke="midnightblue" points="526,-57.4 529.5,-67.4 533,-57.4 526,-57.4"/>
</g>
</g>
</svg>
